<svg width="342" height="208" viewBox="0 0 342 208" fill="none" xmlns="http://www.w3.org/2000/svg">
<rect width="342" height="208" fill="#0A0A0A"/>
<path d="M48.5001 16C47.9817 20.2311 47.8104 22.9176 46.7975 24.652C45.1419 26.8076 42.2723 27.0129 37 27.5C42.1865 28.1276 44.9908 28.2636 46.6513 30.2383C47.892 31.9864 48.1018 34.6908 48.5 39C49.1763 33.4111 49.2823 30.5887 51.7328 28.9828C53.4753 28.1412 56.0752 27.9574 60 27.5002C55.1335 26.904 52.3098 26.7669 50.6288 25.2801C49.2075 23.5856 49.056 20.7716 48.5001 16Z" fill="#E771BE"/>
<path d="M274.5 44C274.027 47.8632 273.87 50.3161 272.946 51.8997C271.434 53.8678 268.814 54.0553 264 54.5C268.735 55.0731 271.296 55.1972 272.812 57.0002C273.945 58.5963 274.136 61.0655 274.5 65C275.117 59.8971 275.214 57.3201 277.452 55.8538C279.043 55.0854 281.417 54.9177 285 54.5002C280.557 53.9558 277.979 53.8306 276.444 52.4731C275.146 50.926 275.008 48.3567 274.5 44Z" fill="#7660FF"/>
<path d="M102 39C101.324 44.7028 101.1 48.3237 99.7794 50.6614C97.6198 53.5667 93.8769 53.8435 87 54.5001C93.765 55.346 97.4228 55.5291 99.5887 58.1908C101.207 60.5469 101.481 64.192 102 70C102.882 62.4671 103.02 58.663 106.217 56.4985C108.489 55.3642 111.881 55.1166 117 54.5003C110.652 53.6967 106.969 53.5119 104.777 51.508C102.923 49.2241 102.725 45.4313 102 39Z" fill="#FFF05F"/>
<path d="M260.5 90C259.892 95.1509 259.69 98.4214 258.501 100.533C256.558 103.157 253.189 103.407 247 104C253.088 104.764 256.381 104.93 258.33 107.334C259.786 109.462 260.033 112.754 260.5 118C261.294 111.196 261.418 107.76 264.295 105.805C266.341 104.781 269.393 104.557 274 104C268.287 103.274 264.972 103.108 262.999 101.298C261.331 99.2347 261.153 95.8089 260.5 90Z" fill="#20E7B5"/>
<path d="M60.0001 71C59.324 76.7028 59.1005 80.3237 57.7794 82.6614C55.6198 85.5667 51.8769 85.8435 45 86.5001C51.765 87.346 55.4228 87.5291 57.5887 90.1908C59.2069 92.5469 59.4806 96.192 60 102C60.8821 94.4671 61.0204 90.663 64.2167 88.4985C66.4895 87.3642 69.8807 87.1166 75 86.5003C68.6524 85.6967 64.9693 85.5119 62.7767 83.508C60.9228 81.2241 60.7252 77.4313 60.0001 71Z" fill="#EAB720"/>
<path d="M205.179 100.143H131.821C130.262 100.143 129 98.8795 129 97.3214V57.8214C129 56.2633 130.262 55 131.821 55H205.179C206.738 55 208 56.2633 208 57.8214V97.3214C208 98.8795 206.738 100.143 205.179 100.143ZM134.643 94.5H202.357V60.6429H134.643V94.5Z" fill="#20E7B5"/>
<path d="M168.5 111.428C166.941 111.428 165.679 110.165 165.679 108.607V100.143C165.679 98.5846 166.941 97.3213 168.5 97.3213C170.059 97.3213 171.322 98.5846 171.322 100.143V108.607C171.322 110.165 170.059 111.428 168.5 111.428Z" fill="#20E7B5"/>
<path d="M176.964 111.429H160.036C158.476 111.429 157.214 110.165 157.214 108.607C157.214 107.049 158.476 105.786 160.036 105.786H176.964C178.523 105.786 179.786 107.049 179.786 108.607C179.786 110.165 178.523 111.429 176.964 111.429Z" fill="#20E7B5"/>
<path d="M157.214 88.8571C156.493 88.8571 155.771 88.5813 155.22 88.0302L146.756 79.5659C145.653 78.4638 145.653 76.6784 146.756 75.5763L155.22 67.112C156.322 66.0099 158.107 66.0099 159.209 67.112C160.312 68.2141 160.312 69.9995 159.209 71.1016L152.74 77.5714L159.209 84.0412C160.312 85.1433 160.312 86.9287 159.209 88.0309C158.658 88.5813 157.936 88.8571 157.214 88.8571V88.8571Z" fill="#20E7B5"/>
<path d="M179.786 88.8571C179.064 88.8571 178.342 88.5813 177.791 88.0302C176.689 86.9281 176.689 85.1427 177.791 84.0406L184.26 77.5714L177.79 71.1017C176.688 69.9995 176.688 68.2141 177.79 67.112C178.893 66.0099 180.678 66.0099 181.78 67.112L190.244 75.5763C191.347 76.6784 191.347 78.4638 190.244 79.5659L181.78 88.0302C181.229 88.5813 180.507 88.8571 179.786 88.8571Z" fill="#20E7B5"/>
<path d="M165.679 88.8588C165.384 88.8588 165.084 88.8122 164.786 88.7127C163.31 88.2196 162.51 86.6212 163.004 85.143L168.647 68.2145C169.14 66.7364 170.722 65.9328 172.215 66.4304C173.692 66.9235 174.491 68.5219 173.997 70L168.354 86.9286C167.961 88.1113 166.861 88.859 165.679 88.859L165.679 88.8588Z" fill="#20E7B5"/>
<path d="M117 121.731C117 118.649 114.48 116.097 111.398 116.097C110.625 116.097 109.88 116.228 109.211 116.512C108.132 113.316 105.106 111 101.545 111C98.8527 111 96.4666 112.311 94.9964 114.334C94.674 114.263 94.3389 114.22 93.9946 114.22C91.6628 114.22 89.7377 115.94 89.4093 118.181C89.1327 118.129 88.8475 118.098 88.5554 118.098C86.0395 118.098 84 120.274 84 122.79C84 125.305 86.0398 127.481 88.5554 127.481H111.479C114.658 127.481 117 124.807 117 121.731L117 121.731Z" fill="#E771BE"/>
<path d="M169 152.633C169 148.43 165.564 144.951 161.361 144.951C160.307 144.951 159.29 145.13 158.379 145.516C156.907 141.158 152.78 138 147.925 138C144.254 138 141 139.787 138.995 142.546C138.555 142.45 138.098 142.39 137.629 142.39C134.449 142.39 131.824 144.737 131.376 147.792C130.999 147.721 130.61 147.679 130.212 147.679C126.781 147.679 124 150.646 124 154.077C124 157.507 126.782 160.474 130.212 160.474H161.471C165.806 160.474 169 156.828 169 152.633L169 152.633Z" fill="#7660FF"/>
<path d="M225.04 138.069C225.04 134.89 222.441 132.258 219.261 132.258C218.464 132.258 217.695 132.393 217.005 132.686C215.892 129.389 212.771 127 209.098 127C206.321 127 203.859 128.352 202.343 130.439C202.01 130.366 201.665 130.321 201.31 130.321C198.904 130.321 196.919 132.096 196.58 134.407C196.294 134.353 196 134.321 195.699 134.321C193.104 134.321 191 136.566 191 139.161C191 141.756 193.104 144 195.699 144H219.345C222.624 144 225.04 141.242 225.04 138.069L225.04 138.069Z" fill="#EAB720"/>
</svg>
