<svg width="342" height="208" viewBox="0 0 342 208" fill="none" xmlns="http://www.w3.org/2000/svg">
<rect width="342" height="208" fill="#0A0A0A"/>
<path d="M48.5001 16C47.9817 20.2311 47.8104 22.9176 46.7975 24.652C45.1419 26.8076 42.2723 27.0129 37 27.5C42.1865 28.1276 44.9908 28.2636 46.6513 30.2383C47.892 31.9864 48.1018 34.6908 48.5 39C49.1763 33.4111 49.2823 30.5887 51.7328 28.9828C53.4753 28.1412 56.0752 27.9574 60 27.5002C55.1335 26.904 52.3098 26.7669 50.6288 25.2801C49.2075 23.5856 49.056 20.7716 48.5001 16Z" fill="#E771BE"/>
<path d="M278 60C277.504 64.0472 277.34 66.6168 276.372 68.2758C274.788 70.3377 272.043 70.5341 267 71C271.961 71.6004 274.643 71.7304 276.232 73.6193C277.418 75.2913 277.619 77.8782 278 82C278.647 76.6541 278.748 73.9544 281.092 72.4183C282.759 71.6133 285.246 71.4376 289 71.0002C284.345 70.4299 281.644 70.2988 280.036 68.8766C278.677 67.2558 278.532 64.5642 278 60Z" fill="#7660FF"/>
<path d="M117.5 19C116.801 24.8868 116.57 28.6245 115.205 31.0376C112.974 34.0366 109.106 34.3224 102 35.0001C108.99 35.8732 112.77 36.0623 115.008 38.8098C116.68 41.2419 116.963 45.0046 117.5 51C118.411 43.2241 118.554 39.2973 121.857 37.063C124.206 35.892 127.71 35.6365 133 35.0003C126.441 34.1708 122.635 33.98 120.369 31.9115C118.454 29.5539 118.249 25.6388 117.5 19Z" fill="#FFF05F"/>
<path d="M248.5 93C247.801 98.8868 247.57 102.624 246.205 105.038C243.974 108.037 240.106 108.322 233 109C239.99 109.873 243.77 110.062 246.008 112.81C247.68 115.242 247.963 119.005 248.5 125C249.411 117.224 249.554 113.297 252.857 111.063C255.206 109.892 258.71 109.636 264 109C257.441 108.171 253.635 107.98 251.369 105.911C249.454 103.554 249.249 99.6388 248.5 93Z" fill="#20E7B5"/>
<path d="M72.0001 53C71.2789 59.0708 71.0405 62.9252 69.6314 65.4138C67.3278 68.5065 63.3354 68.8012 56 69.5001C63.216 70.4005 67.1177 70.5955 69.4279 73.4289C71.154 75.937 71.446 79.8173 72 86C72.9409 77.9811 73.0884 73.9316 76.4978 71.6275C78.9221 70.4199 82.5395 70.1563 88 69.5003C81.2292 68.6449 77.3006 68.4481 74.9618 66.3149C72.9844 63.8837 72.7735 59.8462 72.0001 53Z" fill="#EAB720"/>
<path d="M213.192 47H156.021C154.026 47 152.429 48.5966 152.429 50.5919V69.4494C153.228 70.8462 154.425 72.742 155.223 73.9391L164.802 73.4401H165.002C166.598 73.4401 167.995 74.7374 168.094 76.3332L168.194 78.0293C168.294 79.7254 167.196 81.1221 165.5 81.4214C161.908 81.9205 153.527 83.018 153.028 83.1175H152.529V91.9975C152.529 93.9928 154.126 95.5894 156.121 95.5894H213.292C215.287 95.5894 216.884 93.9928 216.884 91.9975V50.5926C216.784 48.5973 215.188 47.0007 213.192 47.0007L213.192 47Z" fill="#FFF05F"/>
<path d="M145.346 56.8781C145.346 60.7351 142.219 63.8622 138.362 63.8622C134.504 63.8622 131.377 60.7351 131.377 56.8781C131.377 53.0211 134.504 49.894 138.362 49.894C142.219 49.894 145.346 53.0211 145.346 56.8781" fill="#FFF05F"/>
<path d="M216.05 129.769H214.254C213.955 129.769 213.755 129.868 213.555 130.068C211.859 131.665 209.664 132.563 207.17 132.563C204.676 132.563 202.48 131.565 200.784 130.068C200.585 129.868 200.285 129.769 200.086 129.769H198.29C196.394 129.769 194.997 131.365 195.197 133.261L194 145.135C194.1 146.631 195.098 148.028 196.594 148.527C199.388 149.425 204.177 149.924 207.37 149.924C210.563 149.924 215.352 149.425 218.145 148.527C219.642 148.028 220.64 146.731 220.739 145.135L219.542 133.261C219.342 131.365 217.845 129.769 216.05 129.769H216.05Z" fill="#EAB720"/>
<path d="M214.254 123.184C214.254 127.152 211.038 130.368 207.07 130.368C203.103 130.368 199.886 127.151 199.886 123.184C199.886 119.216 203.103 116 207.07 116C211.038 116 214.254 119.216 214.254 123.184Z" fill="#EAB720"/>
<path d="M257.05 141.769H255.254C254.955 141.769 254.755 141.868 254.555 142.068C252.859 143.665 250.664 144.563 248.17 144.563C245.676 144.563 243.48 143.565 241.784 142.068C241.585 141.868 241.285 141.769 241.086 141.769H239.29C237.394 141.769 235.997 143.365 236.197 145.261L235 157.135C235.1 158.631 236.098 160.028 237.594 160.527C240.388 161.425 245.177 161.924 248.37 161.924C251.563 161.924 256.352 161.425 259.145 160.527C260.642 160.028 261.64 158.731 261.739 157.135L260.542 145.261C260.342 143.365 258.845 141.769 257.05 141.769H257.05Z" fill="#7660FF"/>
<path d="M255.254 135.184C255.254 139.152 252.038 142.368 248.07 142.368C244.103 142.368 240.886 139.151 240.886 135.184C240.886 131.216 244.103 128 248.07 128C252.038 128 255.254 131.216 255.254 135.184Z" fill="#7660FF"/>
<path d="M306.05 138.769H304.254C303.955 138.769 303.755 138.868 303.555 139.068C301.859 140.665 299.664 141.563 297.17 141.563C294.676 141.563 292.48 140.565 290.784 139.068C290.585 138.868 290.285 138.769 290.086 138.769H288.29C286.394 138.769 284.997 140.365 285.197 142.261L284 154.135C284.1 155.631 285.098 157.028 286.594 157.527C289.388 158.425 294.177 158.924 297.37 158.924C300.563 158.924 305.352 158.425 308.145 157.527C309.642 157.028 310.64 155.731 310.739 154.135L309.542 142.261C309.342 140.365 307.845 138.769 306.05 138.769H306.05Z" fill="#20E7B5"/>
<path d="M304.254 132.184C304.254 136.152 301.038 139.368 297.07 139.368C293.103 139.368 289.886 136.151 289.886 132.184C289.886 128.216 293.103 125 297.07 125C301.038 125 304.254 128.216 304.254 132.184Z" fill="#20E7B5"/>
<path d="M80.8995 120.553H79.5233C79.294 120.553 79.1409 120.629 78.9878 120.782C77.6879 122.006 76.0055 122.694 74.0937 122.694C72.182 122.694 70.4996 121.929 69.1996 120.782C69.0466 120.629 68.8172 120.553 68.6641 120.553H67.2879C65.8348 120.553 64.7644 121.776 64.9175 123.23L64 132.33C64.0763 133.476 64.8412 134.547 65.9881 134.929C68.1292 135.618 71.7997 136 74.2468 136C76.694 136 80.3646 135.618 82.5056 134.929C83.6524 134.547 84.4173 133.553 84.4937 132.33L83.5762 123.23C83.4226 121.777 82.2757 120.553 80.8995 120.553H80.8995Z" fill="#E771BE"/>
<path d="M79.5232 115.506C79.5232 118.547 77.0582 121.012 74.0173 121.012C70.9764 121.012 68.5115 118.547 68.5115 115.506C68.5115 112.465 70.9764 110 74.0173 110C77.0582 110 79.5232 112.465 79.5232 115.506Z" fill="#E771BE"/>
<path d="M113.199 144.365H111.717C111.47 144.365 111.306 144.447 111.141 144.612C109.741 145.929 107.929 146.67 105.87 146.67C103.811 146.67 102 145.847 100.6 144.612C100.435 144.447 100.188 144.365 100.023 144.365H98.5408C96.976 144.365 95.8232 145.682 95.988 147.247L95 157.047C95.0821 158.282 95.9059 159.435 97.141 159.847C99.4469 160.588 103.4 161 106.035 161C108.67 161 112.623 160.588 114.929 159.847C116.164 159.435 116.988 158.365 117.07 157.047L116.082 147.247C115.917 145.682 114.682 144.365 113.199 144.365H113.199Z" fill="#7660FF"/>
<path d="M111.717 138.929C111.717 142.204 109.063 144.859 105.788 144.859C102.513 144.859 99.8586 142.204 99.8586 138.929C99.8586 135.654 102.513 133 105.788 133C109.063 133 111.717 135.655 111.717 138.929Z" fill="#7660FF"/>
<path d="M144.55 124.959H143.12C142.882 124.959 142.723 125.038 142.564 125.197C141.214 126.468 139.467 127.182 137.482 127.182C135.497 127.182 133.75 126.388 132.4 125.197C132.241 125.038 132.002 124.959 131.843 124.959H130.414C128.905 124.959 127.794 126.229 127.953 127.738L127 137.188C127.079 138.379 127.874 139.491 129.065 139.888C131.288 140.603 135.1 141 137.641 141C140.182 141 143.994 140.603 146.217 139.888C147.408 139.491 148.203 138.459 148.282 137.188L147.329 127.738C147.17 126.229 145.979 124.959 144.549 124.959H144.55Z" fill="#20E7B5"/>
<path d="M143.12 119.718C143.12 122.876 140.561 125.435 137.403 125.435C134.245 125.435 131.685 122.875 131.685 119.718C131.685 116.56 134.245 114 137.403 114C140.561 114 143.12 116.56 143.12 119.718Z" fill="#20E7B5"/>
<path d="M176.95 141.335H175.732C175.529 141.335 175.394 141.403 175.258 141.538C174.109 142.621 172.62 143.229 170.929 143.229C169.238 143.229 167.75 142.553 166.6 141.538C166.464 141.403 166.261 141.335 166.126 141.335H164.909C163.623 141.335 162.676 142.418 162.812 143.703L162 151.753C162.067 152.768 162.744 153.715 163.759 154.053C165.653 154.662 168.9 155 171.065 155C173.229 155 176.476 154.662 178.37 154.053C179.385 153.715 180.061 152.836 180.129 151.753L179.317 143.703C179.182 142.418 178.167 141.335 176.95 141.335H176.95Z" fill="#E771BE"/>
<path d="M175.732 136.871C175.732 139.561 173.552 141.741 170.862 141.741C168.171 141.741 165.991 139.561 165.991 136.871C165.991 134.18 168.171 132 170.862 132C173.552 132 175.732 134.181 175.732 136.871Z" fill="#E771BE"/>
<path d="M127.985 80.3252L130.579 74.9377L129.78 93.6954C129.78 94.8925 130.678 95.8904 131.876 95.8904H144.747C145.944 95.8904 146.842 94.8924 146.842 93.7948L146.244 73.74L150.534 79.527L151.431 80.7241C151.731 81.1229 152.13 81.3226 152.729 81.2231C153.228 81.1236 162.108 80.026 165.201 79.527C165.799 79.4275 166.199 78.9285 166.199 78.3299L166.099 76.6338C166 76.0353 165.501 75.5363 164.902 75.6358L154.126 76.1348C154.126 76.1348 150.335 69.8488 149.836 69.1507C149.438 68.5522 148.34 66.9557 147.94 66.5568C147.641 66.357 147.342 66.158 147.043 65.9582L143.451 64.5614C141.954 65.5594 140.258 66.0577 138.362 66.0577C136.466 66.0577 134.77 65.4592 133.274 64.5614L129.682 65.8587C128.884 66.158 128.186 66.8567 127.887 67.6543L123.597 77.9311C123.297 78.5297 123.198 79.1282 123.098 79.827L122 92.3985C122 92.8975 122.299 93.2963 122.798 93.3965L125.293 93.5963C125.792 93.5963 126.19 93.297 126.291 92.798L127.985 80.3252Z" fill="#FFF05F"/>
</svg>
