<svg width="342" height="208" viewBox="0 0 342 208" fill="none" xmlns="http://www.w3.org/2000/svg">
<rect width="342" height="208" fill="#0A0A0A"/>
<path d="M158.935 110.316C158.935 111.277 158.158 112.054 157.197 112.054H151.185V118.066C151.185 119.027 150.408 119.804 149.447 119.804C148.485 119.804 147.708 119.027 147.708 118.066V112.054H141.693C140.735 112.054 139.955 111.277 139.955 110.316C139.955 109.354 140.735 108.577 141.693 108.577H147.709V102.563C147.709 101.602 148.486 100.825 149.447 100.825C150.409 100.825 151.186 101.602 151.186 102.563V108.577H157.198C158.157 108.577 158.935 109.356 158.935 110.316ZM170.999 103.083C170.999 99.7287 168.271 97 164.916 97H133.978C130.623 97 127.895 99.7287 127.895 103.083V170H140.885V156.58C140.885 156.102 141.276 155.711 141.754 155.711H157.139C157.616 155.711 158.008 156.102 158.008 156.58L158.008 170H164.915C168.27 170 170.998 167.271 170.998 163.917L170.999 103.083ZM144.375 125.007C144.375 127.162 142.619 128.918 140.464 128.918C138.306 128.918 136.554 127.162 136.554 125.007C136.554 122.852 138.306 121.096 140.464 121.096C142.62 121.096 144.375 122.85 144.375 125.007ZM142.637 125.007C142.637 123.809 141.662 122.834 140.465 122.834C139.267 122.834 138.293 123.81 138.293 125.007C138.293 126.205 139.268 127.179 140.465 127.179C141.662 127.179 142.637 126.205 142.637 125.007ZM144.375 135.434C144.375 137.589 142.619 139.344 140.464 139.344C138.306 139.344 136.554 137.589 136.554 135.434C136.554 133.28 138.306 131.523 140.464 131.523C142.62 131.525 144.375 133.279 144.375 135.434ZM142.637 135.434C142.637 134.238 141.662 133.261 140.465 133.261C139.267 133.261 138.293 134.237 138.293 135.434C138.293 136.631 139.268 137.606 140.465 137.606C141.662 137.606 142.637 136.633 142.637 135.434ZM144.375 145.862C144.375 148.017 142.619 149.773 140.464 149.773C138.306 149.773 136.554 148.017 136.554 145.862C136.554 143.709 138.306 141.951 140.464 141.951C142.62 141.951 144.375 143.707 144.375 145.862ZM142.637 145.862C142.637 144.666 141.662 143.69 140.465 143.69C139.267 143.69 138.293 144.667 138.293 145.862C138.293 147.06 139.268 148.035 140.465 148.035C141.662 148.035 142.637 147.062 142.637 145.862ZM162.34 125.007C162.34 127.162 160.584 128.917 158.429 128.917C156.274 128.917 154.519 127.162 154.519 125.007C154.519 122.852 156.274 121.096 158.429 121.096C160.585 121.096 162.34 122.85 162.34 125.007ZM160.602 125.007C160.602 123.809 159.627 122.834 158.43 122.834C157.232 122.834 156.257 123.809 156.257 125.007C156.257 126.204 157.233 127.179 158.43 127.179C159.627 127.179 160.602 126.204 160.602 125.007ZM162.34 135.433C162.34 137.588 160.584 139.344 158.429 139.344C156.274 139.344 154.519 137.588 154.519 135.433C154.519 133.28 156.274 131.523 158.429 131.523C160.585 131.523 162.34 133.278 162.34 135.433ZM160.602 135.433C160.602 134.237 159.627 133.261 158.43 133.261C157.232 133.261 156.257 134.236 156.257 135.433C156.257 136.631 157.233 137.606 158.43 137.606C159.627 137.606 160.602 136.633 160.602 135.433ZM162.34 145.862C162.34 148.017 160.584 149.773 158.429 149.773C156.274 149.773 154.519 148.017 154.519 145.862C154.519 143.709 156.274 141.951 158.429 141.951C160.585 141.951 162.34 143.707 162.34 145.862ZM160.602 145.862C160.602 144.666 159.627 143.689 158.43 143.689C157.232 143.689 156.257 144.667 156.257 145.862C156.257 147.059 157.233 148.034 158.43 148.034C159.627 148.034 160.602 147.061 160.602 145.862Z" fill="#FFF05F"/>
<path d="M98 163.917V125.707C98 122.352 100.729 119.624 104.083 119.624H126.157V169.999H104.083C100.729 169.999 98 167.271 98 163.916V163.917ZM104.605 133.08C106.761 133.08 108.515 131.324 108.515 129.169C108.515 127.014 106.761 125.258 104.605 125.258C102.45 125.258 100.694 127.014 100.694 129.169C100.694 131.324 102.448 133.08 104.605 133.08ZM104.605 126.997C105.802 126.997 106.777 127.972 106.777 129.169C106.777 130.367 105.802 131.341 104.605 131.341C103.407 131.341 102.432 130.366 102.432 129.169C102.432 127.971 103.407 126.997 104.605 126.997ZM104.605 143.508C106.761 143.508 108.515 141.752 108.515 139.597C108.515 137.442 106.761 135.686 104.605 135.686C102.45 135.686 100.694 137.442 100.694 139.597C100.694 141.753 102.448 143.508 104.605 143.508ZM104.605 137.425C105.802 137.425 106.777 138.4 106.777 139.597C106.777 140.795 105.802 141.77 104.605 141.77C103.407 141.77 102.432 140.794 102.432 139.597C102.432 138.399 103.407 137.425 104.605 137.425ZM104.605 153.936C106.761 153.936 108.515 152.18 108.515 150.025C108.515 147.87 106.761 146.115 104.605 146.115C102.45 146.115 100.694 147.87 100.694 150.025C100.694 152.181 102.448 153.936 104.605 153.936ZM104.605 147.853C105.802 147.853 106.777 148.828 106.777 150.025C106.777 151.223 105.802 152.198 104.605 152.198C103.407 152.198 102.432 151.222 102.432 150.025C102.432 148.828 103.407 147.853 104.605 147.853ZM108.515 160.454C108.515 158.299 106.761 156.543 104.605 156.543C102.45 156.543 100.694 158.299 100.694 160.454C100.694 162.609 102.448 164.365 104.605 164.365C106.76 164.365 108.515 162.609 108.515 160.454ZM102.432 160.454C102.432 159.256 103.407 158.281 104.605 158.281C105.802 158.281 106.777 159.257 106.777 160.454C106.777 161.652 105.802 162.626 104.605 162.626C103.407 162.627 102.432 161.652 102.432 160.454ZM119.551 133.079C121.708 133.079 123.462 131.323 123.462 129.168C123.462 127.013 121.708 125.258 119.551 125.258C117.396 125.258 115.641 127.013 115.641 129.168C115.641 131.324 117.398 133.079 119.551 133.079V133.079ZM119.551 126.996C120.749 126.996 121.724 127.971 121.724 129.168C121.724 130.366 120.748 131.341 119.551 131.341C118.354 131.341 117.379 130.365 117.379 129.168C117.378 127.971 118.354 126.996 119.551 126.996V126.996ZM119.551 143.507C121.708 143.507 123.462 141.752 123.462 139.597C123.462 137.442 121.708 135.686 119.551 135.686C117.396 135.686 115.641 137.442 115.641 139.597C115.641 141.752 117.398 143.507 119.551 143.507V143.507ZM119.551 137.424C120.749 137.424 121.724 138.399 121.724 139.597C121.724 140.794 120.748 141.769 119.551 141.769C118.354 141.769 117.379 140.794 117.379 139.597C117.378 138.399 118.354 137.424 119.551 137.424V137.424ZM119.551 153.935C121.708 153.935 123.462 152.18 123.462 150.025C123.462 147.87 121.708 146.114 119.551 146.114C117.396 146.114 115.641 147.87 115.641 150.025C115.641 152.18 117.398 153.935 119.551 153.935V153.935ZM119.551 147.852C120.749 147.852 121.724 148.828 121.724 150.025C121.724 151.222 120.748 152.197 119.551 152.197C118.354 152.197 117.379 151.222 117.379 150.025C117.378 148.827 118.354 147.852 119.551 147.852V147.852ZM119.551 164.364C121.708 164.364 123.462 162.608 123.462 160.453C123.462 158.298 121.708 156.542 119.551 156.542C117.396 156.542 115.641 158.298 115.641 160.453C115.641 162.609 117.398 164.364 119.551 164.364V164.364ZM119.551 158.281C120.749 158.281 121.724 159.256 121.724 160.453C121.724 161.651 120.748 162.625 119.551 162.625C118.354 162.625 117.379 161.65 117.379 160.453C117.378 159.255 118.354 158.281 119.551 158.281V158.281Z" fill="#FFF05F"/>
<path d="M48.5001 16C47.9817 20.2311 47.8104 22.9176 46.7975 24.652C45.1419 26.8076 42.2723 27.0129 37 27.5C42.1865 28.1276 44.9908 28.2636 46.6513 30.2383C47.892 31.9864 48.1018 34.6908 48.5 39C49.1763 33.4111 49.2823 30.5887 51.7328 28.9828C53.4753 28.1412 56.0752 27.9574 60 27.5002C55.1335 26.904 52.3098 26.7669 50.6288 25.2801C49.2075 23.5856 49.056 20.7716 48.5001 16Z" fill="#E771BE"/>
<path d="M277.5 60C277.027 63.8632 276.87 66.3161 275.946 67.8997C274.434 69.8678 271.814 70.0553 267 70.5C271.735 71.0731 274.296 71.1972 275.812 73.0002C276.945 74.5963 277.136 77.0655 277.5 81C278.117 75.8971 278.214 73.3201 280.452 71.8538C282.043 71.0854 284.417 70.9177 288 70.5002C283.557 69.9558 280.979 69.8306 279.444 68.4731C278.146 66.926 278.008 64.3567 277.5 60Z" fill="#7660FF"/>
<path d="M117 19C116.324 24.7028 116.1 28.3237 114.779 30.6614C112.62 33.5667 108.877 33.8435 102 34.5001C108.765 35.346 112.423 35.5291 114.589 38.1908C116.207 40.5469 116.481 44.192 117 50C117.882 42.4671 118.02 38.663 121.217 36.4985C123.489 35.3642 126.881 35.1166 132 34.5003C125.652 33.6967 121.969 33.5119 119.777 31.508C117.923 29.2241 117.725 25.4313 117 19Z" fill="#FFF05F"/>
<path d="M255.5 97C254.892 102.151 254.69 105.421 253.501 107.533C251.558 110.157 248.189 110.407 242 111C248.088 111.764 251.381 111.93 253.33 114.334C254.786 116.462 255.033 119.754 255.5 125C256.294 118.196 256.418 114.76 259.295 112.805C261.341 111.781 264.393 111.557 269 111C263.287 110.274 259.972 110.108 257.999 108.298C256.331 106.235 256.153 102.809 255.5 97Z" fill="#20E7B5"/>
<path d="M69.0001 50C68.324 55.7028 68.1005 59.3237 66.7794 61.6614C64.6198 64.5667 60.8769 64.8435 54 65.5001C60.765 66.346 64.4228 66.5291 66.5887 69.1908C68.2069 71.5469 68.4806 75.192 69 81C69.8821 73.4671 70.0204 69.663 73.2167 67.4985C75.4895 66.3642 78.8807 66.1166 84 65.5003C77.6524 64.6967 73.9693 64.5119 71.7767 62.508C69.9228 60.2241 69.7252 56.4313 69.0001 50Z" fill="#EAB720"/>
<path d="M145 79.4799C145 80.6185 145.202 81.4671 145.563 82.1103C146.469 83.7246 148.408 84 150.889 84C152.115 84 153.472 83.9349 154.9 83.9349H165.098C166.526 83.9349 167.884 84 169.11 84C171.591 84 173.53 83.7246 174.437 82.1103C174.796 81.467 175 80.6185 175 79.4799C175 76.5596 173.703 73.9415 171.651 72.149C170.626 71.2496 169.415 70.5552 168.077 70.1383C169.776 70.3272 171.266 70.6166 171.266 70.6166C167.876 68.7733 167.964 62.155 167.964 62.155C168.5 50.5498 161.542 50 160.219 50C160.081 50 160.004 50.0069 160.004 50.0069L160 50.0264L159.993 50.0076C159.993 50.0076 159.915 50.0008 159.777 50.0008C158.455 50.0008 151.498 50.5494 152.035 62.1551C152.035 62.1551 152.122 68.7741 148.732 70.6167C148.732 70.6167 149.645 70.5556 150.865 70.5339C149.939 70.9427 149.092 71.4908 148.343 72.1475C146.294 73.9415 145 76.5595 145 79.4797L145 79.4799ZM168.783 80.5526C168.783 80.6833 168.663 80.7887 168.516 80.7887H167.064V82.2246C167.064 82.3709 166.958 82.4887 166.826 82.4887H165.394C165.262 82.4887 165.156 82.3704 165.156 82.2246V80.7887H163.704C163.557 80.7887 163.437 80.6833 163.437 80.5526V79.136C163.437 79.0055 163.557 78.8999 163.704 78.8999H165.156V77.4648C165.156 77.3185 165.262 77.1999 165.394 77.1999H166.826C166.957 77.1999 167.064 77.3185 167.064 77.4648V78.8999H168.516C168.664 78.8999 168.783 79.0055 168.783 79.136V80.5526ZM168.42 71.7794C169.535 72.3699 169.955 73.7426 169.358 74.8465C168.762 75.9496 167.374 76.3657 166.258 75.7754C165.143 75.1854 164.723 73.8115 165.319 72.7083C165.654 72.0891 166.237 71.6872 166.882 71.5568C166.675 70.5132 165.972 69.3227 164.808 68.9438L164.627 68.8855L164.686 68.7053L164.893 68.0797L164.953 67.8995L165.135 67.9585C166.159 68.2913 167.012 69.0858 167.537 70.1942C167.754 70.6535 167.894 71.1316 167.958 71.5966C168.114 71.6404 168.269 71.7002 168.42 71.7795L168.42 71.7794ZM157.67 60.0899C157.67 60.0899 160.533 59.1443 164.029 56.6517C164.047 56.6396 164.065 56.628 164.081 56.6149C164.081 56.6149 164.144 56.7039 164.234 56.8562C164.537 57.3704 165.186 58.9045 163.958 59.6061L166.196 59.8875H166.237L166.647 59.9626C166.641 60.2833 166.619 60.5993 166.573 60.9081C166.443 62.6046 166.008 64.1675 165.347 65.4794C164.145 67.8647 162.197 69.415 159.999 69.415C156.647 69.415 153.877 65.8122 153.443 61.1396C153.443 61.1415 156.089 60.7083 157.67 60.09L157.67 60.0899ZM150.392 72.1417C150.507 71.8204 150.738 71.5617 151.03 71.4217C151.141 70.6478 151.57 69.8214 152.22 69.1373C153.069 68.2461 154.13 67.7555 155.207 67.7555V68.7921C153.611 68.7921 152.318 70.3466 152.085 71.4574C152.336 71.5968 152.532 71.8257 152.643 72.1067C153.595 72.5206 154.442 73.449 155.092 74.7969C155.189 74.9961 155.189 75.2235 155.097 75.4217C155.501 76.4212 155.732 77.5143 155.732 78.4337C155.732 79.8896 155.668 80.8017 154.434 81.0433C154.316 81.1577 154.159 81.222 153.994 81.222H153.046C152.697 81.222 152.412 80.9403 152.412 80.5932V80.5808L152.412 80.5793C152.42 80.2401 152.703 79.9653 153.046 79.9653H153.994C154.085 79.9653 154.176 79.9853 154.259 80.0235C154.484 79.9771 154.521 79.9136 154.542 79.878C154.66 79.6759 154.684 79.1758 154.684 78.4335C154.684 77.6321 154.478 76.6724 154.118 75.7875C153.956 75.7163 153.824 75.5911 153.748 75.433C153.126 74.1471 152.285 73.3478 151.553 73.3478C150.806 73.3478 149.923 74.2103 149.306 75.545C149.221 75.7271 149.064 75.8668 148.875 75.9329C148.544 76.7883 148.363 77.6726 148.363 78.4326C148.363 79.0148 148.375 79.6535 148.517 79.8804C148.539 79.9152 148.583 79.9842 148.837 80.0309C148.925 79.9874 149.022 79.9645 149.122 79.9645H150.069C150.407 79.9645 150.683 80.2262 150.703 80.5553L150.704 80.559V80.5922C150.704 80.939 150.419 81.2209 150.069 81.2209H149.122C148.965 81.2209 148.815 81.1627 148.699 81.0586C148.359 81.0035 147.906 80.8705 147.627 80.4285C147.363 80.008 147.315 79.4266 147.315 78.4327C147.315 77.5251 147.532 76.481 147.927 75.4842C147.861 75.3029 147.868 75.105 147.949 74.9308C148.34 74.0854 148.834 73.365 149.378 72.8469C149.695 72.5446 150.035 72.308 150.392 72.1417L150.392 72.1417Z" fill="#20E7B5"/>
<path d="M189 61.1504C189 62.624 189.256 63.7221 189.713 64.5545C190.86 66.6436 193.316 67 196.459 67C198.012 67 199.731 66.9158 201.54 66.9158H214.457C216.266 66.9158 217.986 67 219.539 67C222.682 67 225.138 66.6436 226.287 64.5545C226.742 63.7221 227 62.624 227 61.1504C227 57.3712 225.357 53.9831 222.758 51.6634C221.46 50.4994 219.926 49.6009 218.231 49.0613C220.383 49.3058 222.271 49.6803 222.271 49.6803C217.976 47.2948 218.088 38.73 218.088 38.73C218.767 23.7115 209.953 23 208.278 23C208.103 23 208.006 23.0089 208.006 23.0089L207.999 23.0341L207.991 23.0099C207.991 23.0099 207.893 23.001 207.718 23.001C206.043 23.001 197.23 23.711 197.911 38.7302C197.911 38.7302 198.021 47.296 193.727 49.6804C193.727 49.6804 194.884 49.6013 196.429 49.5733C195.256 50.1023 194.183 50.8116 193.234 51.6614C190.639 53.9831 189 57.3711 189 61.1503L189 61.1504ZM219.125 62.5387C219.125 62.7079 218.973 62.8443 218.787 62.8443H216.948V64.7025C216.948 64.8917 216.813 65.0442 216.646 65.0442H214.832C214.665 65.0442 214.53 64.8911 214.53 64.7025V62.8443H212.692C212.505 62.8443 212.353 62.7079 212.353 62.5387V60.7054C212.353 60.5366 212.505 60.3998 212.692 60.3998H214.53V58.5426C214.53 58.3534 214.665 58.1999 214.832 58.1999H216.646C216.813 58.1999 216.948 58.3534 216.948 58.5426V60.3998H218.787C218.974 60.3998 219.125 60.5366 219.125 60.7054V62.5387ZM218.665 51.1851C220.078 51.9493 220.61 53.7258 219.854 55.1543C219.098 56.5818 217.341 57.1203 215.927 56.3564C214.514 55.5929 213.982 53.8148 214.737 52.3873C215.161 51.5859 215.9 51.0658 216.717 50.897C216.455 49.5465 215.565 48.0058 214.09 47.5155L213.86 47.4401L213.936 47.2068L214.198 46.3973L214.274 46.164L214.505 46.2404C215.802 46.6711 216.882 47.6993 217.546 49.1337C217.821 49.7281 217.999 50.3467 218.08 50.9486C218.278 51.0052 218.474 51.0826 218.665 51.1852L218.665 51.1851ZM205.048 36.0575C205.048 36.0575 208.675 34.8339 213.104 31.6081C213.126 31.5925 213.149 31.5774 213.169 31.5604C213.169 31.5604 213.249 31.6757 213.363 31.8728C213.746 32.5381 214.569 34.5235 213.013 35.4314L215.848 35.7956H215.9L216.42 35.8928C216.412 36.3078 216.384 36.7167 216.325 37.1164C216.161 39.3119 215.61 41.3345 214.773 43.0321C213.25 46.119 210.783 48.1253 207.998 48.1253C203.753 48.1253 200.244 43.4629 199.694 37.416C199.694 37.4184 203.046 36.8578 205.048 36.0577L205.048 36.0575ZM195.83 51.6539C195.976 51.2382 196.268 50.9033 196.638 50.7222C196.779 49.7206 197.322 48.6512 198.146 47.7659C199.221 46.6126 200.564 45.9777 201.929 45.9777V47.3192C199.907 47.3192 198.27 49.3309 197.975 50.7683C198.292 50.9487 198.541 51.2451 198.681 51.6086C199.887 52.1444 200.959 53.3457 201.784 55.0901C201.906 55.3479 201.907 55.6422 201.79 55.8987C202.302 57.1921 202.593 58.6068 202.593 59.7965C202.593 61.6807 202.513 62.861 200.95 63.1737C200.801 63.3217 200.601 63.4049 200.392 63.4049H199.192C198.749 63.4049 198.388 63.0404 198.388 62.5912V62.5752L198.389 62.5732C198.399 62.1343 198.757 61.7786 199.192 61.7786H200.392C200.508 61.7786 200.623 61.8045 200.728 61.8539C201.013 61.7939 201.06 61.7117 201.086 61.6657C201.237 61.4041 201.267 60.7569 201.267 59.7962C201.267 58.7592 201.005 57.5172 200.549 56.372C200.344 56.2799 200.177 56.1179 200.08 55.9133C199.293 54.2492 198.228 53.2148 197.3 53.2148C196.354 53.2148 195.236 54.331 194.454 56.0582C194.347 56.2939 194.148 56.4746 193.908 56.5602C193.49 57.6672 193.26 58.8116 193.26 59.7952C193.26 60.5485 193.275 61.3752 193.455 61.6688C193.483 61.7138 193.539 61.8031 193.86 61.8635C193.972 61.8072 194.094 61.7776 194.221 61.7776H195.421C195.848 61.7776 196.199 62.1162 196.224 62.5421L196.225 62.5469V62.5899C196.225 63.0387 195.865 63.4036 195.421 63.4036H194.221C194.023 63.4036 193.833 63.3282 193.686 63.1935C193.255 63.1222 192.681 62.95 192.328 62.3781C191.994 61.8338 191.932 61.0815 191.932 59.7952C191.932 58.6207 192.207 57.2696 192.707 55.9795C192.624 55.7449 192.633 55.4888 192.736 55.2634C193.231 54.1694 193.857 53.237 194.546 52.5665C194.947 52.1754 195.378 51.8691 195.83 51.654L195.83 51.6539Z" fill="#E771BE"/>
<path d="M186 118.676C186 119.514 186.148 120.138 186.413 120.611C187.077 121.798 188.499 122 190.318 122C191.217 122 192.213 121.952 193.26 121.952H200.738C201.786 121.952 202.781 122 203.681 122C205.5 122 206.922 121.798 207.587 120.611C207.85 120.138 208 119.514 208 118.676C208 116.529 207.049 114.604 205.544 113.286C204.793 112.625 203.905 112.114 202.923 111.808C204.169 111.947 205.262 112.159 205.262 112.159C202.776 110.804 202.84 105.938 202.84 105.938C203.233 97.4043 198.131 97 197.161 97C197.06 97 197.003 97.005 197.003 97.005L197 97.0194L196.995 97.0056C196.995 97.0056 196.938 97.0006 196.837 97.0006C195.867 97.0006 190.765 97.404 191.159 105.938C191.159 105.938 191.223 110.805 188.737 112.159C188.737 112.159 189.406 112.114 190.301 112.098C189.622 112.399 189.001 112.802 188.451 113.285C186.949 114.604 186 116.529 186 118.676L186 118.676ZM203.441 119.465C203.441 119.561 203.353 119.639 203.245 119.639H202.181V120.695C202.181 120.802 202.102 120.889 202.006 120.889H200.956C200.859 120.889 200.781 120.802 200.781 120.695V119.639H199.716C199.608 119.639 199.52 119.561 199.52 119.465V118.424C199.52 118.328 199.608 118.25 199.716 118.25H200.781V117.195C200.781 117.087 200.859 117 200.956 117H202.006C202.102 117 202.181 117.087 202.181 117.195V118.25H203.245C203.353 118.25 203.441 118.328 203.441 118.424V119.465ZM203.174 113.014C203.993 113.448 204.3 114.458 203.863 115.269C203.425 116.081 202.408 116.387 201.59 115.953C200.771 115.519 200.464 114.508 200.9 113.697C201.146 113.242 201.574 112.946 202.047 112.851C201.895 112.083 201.38 111.208 200.526 110.929L200.393 110.886L200.437 110.754L200.589 110.294L200.632 110.161L200.766 110.205C201.517 110.449 202.142 111.034 202.527 111.849C202.686 112.186 202.789 112.538 202.836 112.88C202.95 112.912 203.064 112.956 203.174 113.014L203.174 113.014ZM195.291 104.419C195.291 104.419 197.391 103.724 199.955 101.891C199.968 101.882 199.981 101.874 199.993 101.864C199.993 101.864 200.039 101.929 200.105 102.041C200.327 102.419 200.803 103.547 199.902 104.063L201.543 104.27H201.574L201.875 104.325C201.87 104.561 201.854 104.794 201.82 105.021C201.725 106.268 201.406 107.417 200.921 108.382C200.039 110.136 198.611 111.276 196.999 111.276C194.541 111.276 192.51 108.627 192.191 105.191C192.191 105.192 194.132 104.874 195.291 104.419L195.291 104.419ZM189.954 113.281C190.039 113.044 190.208 112.854 190.422 112.751C190.504 112.182 190.818 111.575 191.295 111.072C191.917 110.416 192.695 110.055 193.485 110.055V110.818C192.314 110.818 191.367 111.961 191.196 112.777C191.38 112.88 191.524 113.048 191.605 113.255C192.303 113.559 192.924 114.242 193.401 115.233C193.472 115.38 193.472 115.547 193.404 115.692C193.701 116.427 193.87 117.231 193.87 117.907C193.87 118.978 193.823 119.648 192.919 119.826C192.832 119.91 192.717 119.957 192.595 119.957H191.901C191.644 119.957 191.435 119.75 191.435 119.495V119.486L191.436 119.485C191.441 119.235 191.649 119.033 191.901 119.033H192.595C192.663 119.033 192.729 119.048 192.79 119.076C192.955 119.042 192.982 118.995 192.997 118.969C193.084 118.821 193.102 118.453 193.102 117.907C193.102 117.318 192.95 116.612 192.686 115.961C192.568 115.909 192.471 115.817 192.415 115.701C191.959 114.755 191.343 114.168 190.806 114.168C190.257 114.168 189.61 114.802 189.158 115.783C189.096 115.917 188.98 116.02 188.841 116.068C188.599 116.697 188.466 117.348 188.466 117.906C188.466 118.334 188.475 118.804 188.579 118.971C188.595 118.996 188.628 119.047 188.814 119.082C188.878 119.05 188.949 119.033 189.023 119.033H189.718C189.965 119.033 190.168 119.225 190.182 119.467L190.183 119.47V119.494C190.183 119.749 189.974 119.957 189.718 119.957H189.023C188.908 119.957 188.798 119.914 188.713 119.837C188.463 119.797 188.131 119.699 187.927 119.374C187.733 119.065 187.698 118.637 187.698 117.906C187.698 117.239 187.857 116.471 188.146 115.738C188.098 115.605 188.103 115.46 188.163 115.331C188.449 114.71 188.812 114.18 189.211 113.799C189.443 113.577 189.692 113.403 189.954 113.281L189.954 113.281Z" fill="#7660FF"/>
</svg>
