<svg width="342" height="208" viewBox="0 0 342 208" fill="none" xmlns="http://www.w3.org/2000/svg">
<rect width="342" height="208" fill="#0A0A0A"/>
<path d="M48.5001 16C47.9817 20.2311 47.8104 22.9176 46.7975 24.652C45.1419 26.8076 42.2723 27.0129 37 27.5C42.1865 28.1276 44.9908 28.2636 46.6513 30.2383C47.892 31.9864 48.1018 34.6908 48.5 39C49.1763 33.4111 49.2823 30.5887 51.7328 28.9828C53.4753 28.1412 56.0752 27.9574 60 27.5002C55.1335 26.904 52.3098 26.7669 50.6288 25.2801C49.2075 23.5856 49.056 20.7716 48.5001 16Z" fill="#E771BE"/>
<path d="M274.5 44C274.027 47.8632 273.87 50.3161 272.946 51.8997C271.434 53.8678 268.814 54.0553 264 54.5C268.735 55.0731 271.296 55.1972 272.812 57.0002C273.945 58.5963 274.136 61.0655 274.5 65C275.117 59.8971 275.214 57.3201 277.452 55.8538C279.043 55.0854 281.417 54.9177 285 54.5002C280.557 53.9558 277.979 53.8306 276.444 52.4731C275.146 50.926 275.008 48.3567 274.5 44Z" fill="#7660FF"/>
<path d="M102 39C101.324 44.7028 101.1 48.3237 99.7794 50.6614C97.6198 53.5667 93.8769 53.8435 87 54.5001C93.765 55.346 97.4228 55.5291 99.5887 58.1908C101.207 60.5469 101.481 64.192 102 70C102.882 62.4671 103.02 58.663 106.217 56.4985C108.489 55.3642 111.881 55.1166 117 54.5003C110.652 53.6967 106.969 53.5119 104.777 51.508C102.923 49.2241 102.725 45.4313 102 39Z" fill="#FFF05F"/>
<path d="M260.5 90C259.892 95.1509 259.69 98.4214 258.501 100.533C256.558 103.157 253.189 103.407 247 104C253.088 104.764 256.381 104.93 258.33 107.334C259.786 109.462 260.033 112.754 260.5 118C261.294 111.196 261.418 107.76 264.295 105.805C266.341 104.781 269.393 104.557 274 104C268.287 103.274 264.972 103.108 262.999 101.298C261.331 99.2347 261.153 95.8089 260.5 90Z" fill="#20E7B5"/>
<path d="M60.0001 71C59.324 76.7028 59.1005 80.3237 57.7794 82.6614C55.6198 85.5667 51.8769 85.8435 45 86.5001C51.765 87.346 55.4228 87.5291 57.5887 90.1908C59.2069 92.5469 59.4806 96.192 60 102C60.8821 94.4671 61.0204 90.663 64.2167 88.4985C66.4895 87.3642 69.8807 87.1166 75 86.5003C68.6524 85.6967 64.9693 85.5119 62.7767 83.508C60.9228 81.2241 60.7252 77.4313 60.0001 71Z" fill="#EAB720"/>
<path d="M215.519 50.0015H140.838C139.552 50.0055 138.323 50.5195 137.415 51.4297C136.509 52.34 136 53.572 136 54.8576V98.9194V98.918C136.005 100.2 136.517 101.428 137.422 102.333C138.328 103.239 139.556 103.751 140.838 103.756H176.613C176.521 105.418 175.795 106.984 174.586 108.128C173.375 109.271 171.772 109.908 170.106 109.906H167.425C166.636 109.993 166.04 110.659 166.04 111.453C166.04 112.247 166.636 112.912 167.425 113H188.95C189.739 112.912 190.335 112.247 190.335 111.453C190.335 110.659 189.739 109.993 188.95 109.906H186.269C184.603 109.904 182.999 109.267 181.787 108.124C180.574 106.981 179.844 105.42 179.744 103.756H215.519C216.803 103.756 218.036 103.247 218.945 102.339C219.856 101.433 220.37 100.202 220.375 98.918V54.8562C220.375 53.5679 219.863 52.332 218.952 51.4217C218.042 50.5114 216.807 50 215.519 50L215.519 50.0015Z" fill="#FFF05F"/>
<path d="M106.174 104.163C96.9804 102.734 89.0819 110.916 91.4126 120.268C92.9665 126.502 99.0522 130.788 105.915 129.878C108.375 129.489 109.411 126.502 107.598 124.683L106.433 123.515C105.397 122.476 105.138 120.917 106.044 119.748C107.08 118.319 109.152 118.19 110.447 119.359L111.483 120.398C113.295 122.216 116.532 121.177 116.921 118.579C117.698 111.436 112.648 105.332 106.174 104.163L106.174 104.163ZM94.2613 118.969C93.4843 118.969 92.9664 118.449 92.9664 117.67C92.9664 116.891 93.4843 116.371 94.2613 116.371C95.0382 116.371 95.5561 116.891 95.5561 117.67C95.5561 118.319 95.0382 118.969 94.2613 118.969ZM98.0163 125.463C97.4984 125.982 96.7214 125.982 96.2035 125.463C95.6856 124.943 95.6856 124.164 96.2035 123.644C96.7214 123.125 97.4984 123.125 98.0163 123.644C98.5342 124.034 98.5342 124.943 98.0163 125.463ZM98.0163 111.696C97.4984 112.085 96.7214 112.085 96.2035 111.696C95.6856 111.176 95.6856 110.397 96.2035 109.878C96.7214 109.228 97.4984 109.228 98.0163 109.748C98.5342 110.267 98.5342 111.176 98.0163 111.696V111.696ZM102.678 118.319C101.253 118.319 100.088 117.151 100.088 115.722C100.088 114.293 101.253 113.124 102.678 113.124C104.102 113.124 105.267 114.293 105.267 115.722C105.267 117.151 104.102 118.319 102.678 118.319ZM103.973 109.228C103.196 109.228 102.678 108.579 102.678 107.929C102.678 107.15 103.196 106.631 103.973 106.631C104.75 106.631 105.267 107.15 105.267 107.929C105.267 108.579 104.75 109.228 103.973 109.228ZM111.742 111.696C111.224 112.215 110.447 112.215 109.929 111.696C109.411 111.176 109.411 110.397 109.929 109.877C110.447 109.228 111.224 109.228 111.742 109.748C112.26 110.267 112.26 111.176 111.742 111.696V111.696Z" fill="#20E7B5"/>
<path d="M222.174 125.163C212.98 123.734 205.082 131.916 207.413 141.268C208.967 147.502 215.052 151.788 221.915 150.878C224.375 150.489 225.411 147.502 223.598 145.683L222.433 144.515C221.397 143.476 221.138 141.917 222.044 140.748C223.08 139.319 225.152 139.19 226.447 140.359L227.483 141.398C229.295 143.216 232.532 142.177 232.921 139.579C233.698 132.436 228.648 126.332 222.174 125.163L222.174 125.163ZM210.261 139.969C209.484 139.969 208.966 139.449 208.966 138.67C208.966 137.891 209.484 137.371 210.261 137.371C211.038 137.371 211.556 137.891 211.556 138.67C211.556 139.319 211.038 139.969 210.261 139.969ZM214.016 146.463C213.498 146.982 212.721 146.982 212.204 146.463C211.686 145.943 211.686 145.164 212.204 144.644C212.721 144.125 213.498 144.125 214.016 144.644C214.534 145.034 214.534 145.943 214.016 146.463ZM214.016 132.696C213.498 133.085 212.721 133.085 212.204 132.696C211.686 132.176 211.686 131.397 212.204 130.878C212.721 130.228 213.498 130.228 214.016 130.748C214.534 131.267 214.534 132.176 214.016 132.696V132.696ZM218.678 139.319C217.253 139.319 216.088 138.151 216.088 136.722C216.088 135.293 217.253 134.124 218.678 134.124C220.102 134.124 221.267 135.293 221.267 136.722C221.267 138.151 220.102 139.319 218.678 139.319ZM219.973 130.228C219.196 130.228 218.678 129.579 218.678 128.929C218.678 128.15 219.196 127.631 219.973 127.631C220.75 127.631 221.267 128.15 221.267 128.929C221.267 129.579 220.75 130.228 219.973 130.228ZM227.742 132.696C227.224 133.215 226.447 133.215 225.929 132.696C225.411 132.176 225.411 131.397 225.929 130.877C226.447 130.228 227.224 130.228 227.742 130.748C228.26 131.267 228.26 132.176 227.742 132.696V132.696Z" fill="#7660FF"/>
<path d="M147.174 138.163C137.98 136.734 130.082 144.916 132.413 154.268C133.967 160.502 140.052 164.788 146.915 163.878C149.375 163.489 150.411 160.502 148.598 158.683L147.433 157.515C146.397 156.476 146.138 154.917 147.044 153.748C148.08 152.319 150.152 152.19 151.447 153.359L152.483 154.398C154.295 156.216 157.532 155.177 157.921 152.579C158.698 145.436 153.648 139.332 147.174 138.163L147.174 138.163ZM135.261 152.969C134.484 152.969 133.966 152.449 133.966 151.67C133.966 150.891 134.484 150.371 135.261 150.371C136.038 150.371 136.556 150.891 136.556 151.67C136.556 152.319 136.038 152.969 135.261 152.969ZM139.016 159.463C138.498 159.982 137.721 159.982 137.204 159.463C136.686 158.943 136.686 158.164 137.204 157.644C137.721 157.125 138.498 157.125 139.016 157.644C139.534 158.034 139.534 158.943 139.016 159.463ZM139.016 145.696C138.498 146.085 137.721 146.085 137.204 145.696C136.686 145.176 136.686 144.397 137.204 143.878C137.721 143.228 138.498 143.228 139.016 143.748C139.534 144.267 139.534 145.176 139.016 145.696V145.696ZM143.678 152.319C142.253 152.319 141.088 151.151 141.088 149.722C141.088 148.293 142.253 147.124 143.678 147.124C145.102 147.124 146.267 148.293 146.267 149.722C146.267 151.151 145.102 152.319 143.678 152.319ZM144.973 143.228C144.196 143.228 143.678 142.579 143.678 141.929C143.678 141.15 144.196 140.631 144.973 140.631C145.75 140.631 146.267 141.15 146.267 141.929C146.267 142.579 145.75 143.228 144.973 143.228ZM152.742 145.696C152.224 146.215 151.447 146.215 150.929 145.696C150.411 145.176 150.411 144.397 150.929 143.877C151.447 143.228 152.224 143.228 152.742 143.748C153.26 144.267 153.26 145.176 152.742 145.696V145.696Z" fill="#E771BE"/>
</svg>
