<svg width="342" height="208" viewBox="0 0 342 208" fill="none" xmlns="http://www.w3.org/2000/svg">
<rect width="342" height="208" fill="#0A0A0A"/>
<path fill-rule="evenodd" clip-rule="evenodd" d="M218.404 48.0163C218.644 48.6029 218.363 49.2708 217.777 49.5106L205.049 54.7137C204.463 54.9536 203.795 54.6733 203.555 54.0866L200.086 45.6018C199.846 45.0152 200.127 44.3473 200.713 44.1075L213.441 38.9044C214.027 38.6645 214.695 38.9448 214.935 39.5315L218.404 48.0163ZM223.847 64.3591L218.544 66.527C217.957 66.7669 217.289 66.4866 217.05 65.9003C216.81 65.3136 217.09 64.6458 217.677 64.4059L222.98 62.238C223.566 61.9982 224.234 62.2784 224.474 62.8651C224.714 63.4514 224.434 64.1193 223.847 64.3591ZM225.581 68.6017L214.975 72.9377C214.389 73.1774 213.721 72.8972 213.481 72.3105C213.241 71.7242 213.521 71.0563 214.108 70.8166L224.714 66.4806C225.301 66.2408 225.969 66.521 226.208 67.1073C226.448 67.694 226.168 68.3619 225.581 68.6017ZM227.316 72.8443L222.013 75.0122C221.426 75.252 220.758 74.9718 220.518 74.3851C220.279 73.7984 220.559 73.1306 221.145 72.8907L226.448 70.7228C227.035 70.483 227.703 70.7633 227.943 71.3499C228.183 71.9366 227.902 72.6045 227.316 72.8443ZM217.77 76.7466L208.225 80.6489C207.638 80.8888 206.97 80.6085 206.73 80.0218C206.49 79.4352 206.771 78.7673 207.357 78.5275L216.903 74.6251C217.49 74.3853 218.157 74.6656 218.397 75.2522C218.637 75.8389 218.357 76.5068 217.77 76.7466ZM202.488 81.756C202.728 82.3427 202.448 83.0106 201.861 83.2504C201.274 83.4902 200.607 83.21 200.367 82.6233L187.359 50.8049C187.119 50.2182 187.399 49.5503 187.986 49.3105C188.573 49.0706 189.241 49.3509 189.48 49.9376L202.488 81.756ZM184.553 62.1728L186.194 71.191C186.293 71.7333 185.993 72.2548 185.502 72.4555C185.428 72.4854 185.352 72.5079 185.272 72.522L183.466 72.852L186.109 76.7463C186.28 76.9985 186.343 77.3068 186.286 77.6061C186.23 77.904 186.056 78.1683 185.804 78.3379L176.324 84.7713C176.256 84.8176 176.185 84.8536 176.112 84.8835C175.621 85.0842 175.041 84.923 174.732 84.4661L169.585 76.8813C169.415 76.6304 169.351 76.3209 169.408 76.0216C169.465 75.7248 169.639 75.4593 169.89 75.29L172.626 73.4322L172.048 70.2523C169.749 70.2962 167.548 68.9589 166.628 66.7071C165.432 63.7831 166.839 60.4316 169.763 59.2362C172.676 58.0452 176.012 59.4394 177.218 62.3417L183.221 61.2495C183.843 61.1371 184.44 61.5493 184.554 62.1726L184.553 62.1728ZM205.623 74.2854L209.866 72.5509C210.452 72.3113 211.12 72.5915 211.36 73.1778C211.6 73.7645 211.319 74.4324 210.733 74.672L206.49 76.4065C205.904 76.6463 205.236 76.366 204.996 75.7794C204.756 75.1931 205.037 74.5252 205.623 74.2854ZM203.889 70.0428L213.434 66.1404C214.021 65.9006 214.689 66.1809 214.929 66.7675C215.169 67.3538 214.888 68.0217 214.302 68.2616L204.756 72.1639C204.169 72.4037 203.502 72.1234 203.262 71.5372C203.022 70.9505 203.302 70.2826 203.889 70.0428ZM213.394 32.7344L158.243 55.281C155.903 56.2375 154.778 58.9181 155.734 61.258L170.476 97.3183C171.433 99.6581 174.113 100.783 176.453 99.8264L231.605 77.2799C233.945 76.3234 235.069 73.6428 234.113 71.3029L219.371 35.2426C218.414 32.9028 215.734 31.7779 213.394 32.7344V32.7344Z" fill="#E771BE"/>
<path fill-rule="evenodd" clip-rule="evenodd" d="M177.674 64.736C177.65 64.8113 177.643 64.9196 177.625 65.08C177.511 66.1815 177.067 67.2444 176.381 68.1129C175.827 68.8161 175.105 69.3931 174.287 69.7621L174.699 72.0274C174.699 72.0274 179.371 68.8574 179.391 68.8496C179.511 68.7703 179.645 68.7121 179.784 68.6836C180.082 68.6223 180.39 68.6811 180.642 68.8466C180.768 68.9288 180.879 69.0357 180.964 69.1628L182.061 70.7794L183.735 70.474L182.503 63.7098C181.327 63.9245 180.152 64.1387 178.975 64.3525C178.673 64.4082 178.369 64.4616 178.067 64.5184C177.803 64.5679 177.715 64.6003 177.674 64.7361" fill="#E771BE"/>
<path fill-rule="evenodd" clip-rule="evenodd" d="M172.712 67.8406C173.695 67.6221 174.589 66.9889 175.06 65.9324C176.299 63.1532 173.43 60.2127 170.63 61.3574C168.874 62.075 168.031 64.0858 168.749 65.84C169.43 67.5062 171.177 68.1807 172.712 67.8406" fill="#E771BE"/>
<path fill-rule="evenodd" clip-rule="evenodd" d="M175.601 74.1852L175.599 74.1861L172.124 76.5438L175.984 82.2333L183.57 77.087L179.71 71.3966L175.601 74.1852Z" fill="#E771BE"/>
<path fill-rule="evenodd" clip-rule="evenodd" d="M205.243 52.1593L215.848 47.8237L213.247 41.46L202.641 45.7957L205.243 52.1593Z" fill="#E771BE"/>
<path fill-rule="evenodd" clip-rule="evenodd" d="M89.5805 109.438C89.6572 109.625 89.5676 109.839 89.3801 109.915L85.313 111.578C85.1256 111.654 84.9121 111.565 84.8355 111.377L83.7271 108.666C83.6504 108.479 83.74 108.265 83.9275 108.189L87.9946 106.526C88.182 106.449 88.3954 106.539 88.4721 106.726L89.5805 109.438ZM91.3199 114.66L89.6253 115.353C89.4378 115.429 89.2244 115.34 89.1478 115.153C89.0712 114.965 89.1607 114.752 89.3482 114.675L91.0428 113.982C91.2303 113.906 91.4437 113.995 91.5203 114.183C91.5969 114.37 91.5074 114.583 91.3199 114.66ZM91.8741 116.016L88.4848 117.401C88.2974 117.478 88.084 117.388 88.0074 117.201C87.9308 117.014 88.0203 116.8 88.2077 116.724L91.597 115.338C91.7845 115.261 91.9979 115.351 92.0745 115.538C92.1512 115.726 92.0616 115.939 91.8741 116.016ZM92.4284 117.372L90.7338 118.064C90.5463 118.141 90.3329 118.051 90.2563 117.864C90.1796 117.676 90.2692 117.463 90.4567 117.386L92.1512 116.694C92.3387 116.617 92.5521 116.707 92.6288 116.894C92.7054 117.081 92.6159 117.295 92.4284 117.372ZM89.3781 118.619L86.3277 119.866C86.1403 119.942 85.9268 119.853 85.8502 119.665C85.7736 119.478 85.8631 119.264 86.0506 119.188L89.1009 117.941C89.2884 117.864 89.5018 117.954 89.5785 118.141C89.6551 118.328 89.5655 118.542 89.3781 118.619ZM84.4946 120.219C84.5713 120.407 84.4817 120.62 84.2942 120.697C84.1068 120.774 83.8934 120.684 83.8167 120.496L79.66 110.329C79.5834 110.141 79.6729 109.928 79.8604 109.851C80.0479 109.775 80.2613 109.864 80.338 110.052L84.4946 120.219ZM78.7635 113.961L79.2877 116.843C79.3194 117.017 79.2234 117.183 79.0665 117.247C79.0431 117.257 79.0187 117.264 78.9932 117.269L78.416 117.374L79.2607 118.618C79.3153 118.699 79.3355 118.798 79.3172 118.893C79.2992 118.988 79.2435 119.073 79.1632 119.127L76.1336 121.183C76.112 121.198 76.0894 121.209 76.066 121.219C75.9091 121.283 75.7238 121.231 75.625 121.085L73.9803 118.662C73.9261 118.581 73.9055 118.483 73.9237 118.387C73.9419 118.292 73.9974 118.207 74.0777 118.153L74.9522 117.559L74.7673 116.543C74.0326 116.557 73.3294 116.13 73.0352 115.41C72.6532 114.476 73.1027 113.405 74.0371 113.023C74.968 112.642 76.034 113.088 76.4193 114.015L78.3376 113.666C78.5366 113.63 78.7273 113.762 78.7636 113.961L78.7635 113.961ZM85.4965 117.832L86.8522 117.278C87.0396 117.201 87.253 117.291 87.3296 117.478C87.4062 117.666 87.3167 117.879 87.1293 117.956L85.7736 118.51C85.5861 118.587 85.3727 118.497 85.296 118.309C85.2195 118.122 85.309 117.909 85.4965 117.832ZM84.9422 116.476L87.9926 115.229C88.18 115.153 88.3935 115.242 88.4701 115.43C88.5467 115.617 88.4571 115.83 88.2697 115.907L85.2193 117.154C85.0319 117.231 84.8184 117.141 84.7419 116.954C84.6652 116.766 84.7548 116.553 84.9422 116.476ZM87.9796 104.554L70.3557 111.759C69.608 112.065 69.2486 112.921 69.5542 113.669L74.2651 125.192C74.5707 125.94 75.4273 126.299 76.175 125.994L93.7989 118.789C94.5466 118.483 94.9061 117.627 94.6004 116.879L89.8896 105.356C89.5839 104.608 88.7273 104.249 87.9796 104.554V104.554Z" fill="#7660FF"/>
<path fill-rule="evenodd" clip-rule="evenodd" d="M76.5652 114.78C76.5576 114.805 76.5552 114.839 76.5496 114.89C76.5131 115.242 76.3711 115.582 76.152 115.86C75.9748 116.084 75.7444 116.269 75.4829 116.387L75.6146 117.11C75.6146 117.11 77.1076 116.097 77.1137 116.095C77.1524 116.07 77.195 116.051 77.2396 116.042C77.3348 116.022 77.433 116.041 77.5136 116.094C77.554 116.12 77.5893 116.154 77.6166 116.195L77.967 116.712L78.5019 116.614L78.1083 114.453C77.7325 114.521 77.3571 114.59 76.981 114.658C76.8843 114.676 76.7872 114.693 76.6907 114.711C76.6065 114.727 76.5783 114.737 76.5652 114.78" fill="#7660FF"/>
<path fill-rule="evenodd" clip-rule="evenodd" d="M74.9793 115.773C75.2933 115.703 75.5793 115.5 75.7297 115.163C76.1257 114.275 75.2087 113.335 74.3139 113.701C73.753 113.93 73.4836 114.573 73.7128 115.133C73.9305 115.666 74.4889 115.881 74.9793 115.773" fill="#7660FF"/>
<path fill-rule="evenodd" clip-rule="evenodd" d="M75.9027 117.8L75.902 117.8L74.7915 118.554L76.0248 120.372L78.4491 118.727L77.2155 116.909L75.9027 117.8Z" fill="#7660FF"/>
<path fill-rule="evenodd" clip-rule="evenodd" d="M85.3748 110.762L88.7638 109.376L87.9325 107.343L84.5435 108.728L85.3748 110.762Z" fill="#7660FF"/>
<path fill-rule="evenodd" clip-rule="evenodd" d="M123.56 144.887C123.756 145.366 123.527 145.911 123.049 146.107L112.662 150.353C112.183 150.549 111.638 150.32 111.442 149.841L108.611 142.917C108.416 142.438 108.644 141.893 109.123 141.697L119.51 137.451C119.989 137.255 120.534 137.484 120.73 137.963L123.56 144.887ZM128.003 158.225L123.675 159.994C123.196 160.19 122.651 159.961 122.455 159.482C122.26 159.004 122.488 158.459 122.967 158.263L127.295 156.494C127.774 156.298 128.319 156.527 128.514 157.005C128.71 157.484 128.481 158.029 128.003 158.225ZM129.418 161.687L120.762 165.226C120.284 165.421 119.738 165.193 119.543 164.714C119.347 164.235 119.576 163.69 120.054 163.495L128.71 159.956C129.189 159.76 129.734 159.989 129.93 160.467C130.125 160.946 129.897 161.491 129.418 161.687ZM130.833 165.149L126.506 166.919C126.027 167.114 125.482 166.886 125.286 166.407C125.09 165.928 125.319 165.383 125.798 165.187L130.126 163.418C130.604 163.222 131.149 163.451 131.345 163.93C131.541 164.409 131.312 164.954 130.833 165.149ZM123.043 168.334L115.253 171.519C114.774 171.715 114.229 171.486 114.034 171.007C113.838 170.528 114.067 169.983 114.545 169.787L122.335 166.603C122.814 166.407 123.359 166.636 123.555 167.115C123.751 167.593 123.522 168.138 123.043 168.334ZM110.572 172.422C110.767 172.901 110.539 173.446 110.06 173.642C109.581 173.838 109.036 173.609 108.84 173.13L98.2245 147.163C98.0288 146.684 98.2575 146.139 98.7363 145.943C99.2151 145.748 99.7601 145.976 99.9559 146.455L110.572 172.422ZM95.9349 156.44L97.2737 163.8C97.3545 164.243 97.1094 164.668 96.7086 164.832C96.6489 164.857 96.5868 164.875 96.5214 164.886L95.0475 165.156L97.2046 168.334C97.3442 168.54 97.3956 168.791 97.3491 169.036C97.303 169.279 97.1608 169.494 96.9556 169.633L89.2184 174.883C89.1632 174.921 89.1055 174.95 89.0458 174.975C88.645 175.138 88.1718 175.007 87.9196 174.634L83.7191 168.444C83.5806 168.239 83.5281 167.987 83.5747 167.742C83.6211 167.5 83.7629 167.284 83.9678 167.145L86.2012 165.629L85.7291 163.034C83.8526 163.07 82.0568 161.979 81.3055 160.141C80.33 157.754 81.4777 155.019 83.8641 154.044C86.2417 153.072 88.9639 154.21 89.9482 156.578L94.8473 155.687C95.3554 155.595 95.8423 155.931 95.9352 156.44L95.9349 156.44ZM113.13 166.325L116.593 164.91C117.071 164.714 117.616 164.943 117.812 165.422C118.007 165.9 117.779 166.445 117.3 166.641L113.838 168.057C113.359 168.252 112.814 168.024 112.618 167.545C112.423 167.066 112.651 166.521 113.13 166.325ZM111.715 162.863L119.505 159.678C119.984 159.483 120.529 159.711 120.724 160.19C120.92 160.669 120.691 161.214 120.213 161.409L112.422 164.594C111.944 164.79 111.399 164.561 111.203 164.083C111.007 163.604 111.236 163.059 111.715 162.863ZM119.472 132.415L74.4624 150.816C72.5528 151.597 71.6348 153.784 72.4155 155.694L84.4464 185.123C85.2271 187.032 87.4147 187.95 89.3243 187.17L134.334 168.769C136.243 167.989 137.161 165.801 136.381 163.891L124.35 134.462C123.569 132.553 121.381 131.635 119.472 132.415V132.415Z" fill="#20E7B5"/>
<path fill-rule="evenodd" clip-rule="evenodd" d="M90.3206 158.532C90.301 158.594 90.2949 158.682 90.2808 158.813C90.1876 159.712 89.8248 160.579 89.2652 161.288C88.8128 161.862 88.2243 162.333 87.5566 162.634L87.8929 164.483C87.8929 164.483 91.7057 161.896 91.7214 161.889C91.8201 161.825 91.9289 161.777 92.0428 161.754C92.2859 161.704 92.5368 161.752 92.7426 161.887C92.8458 161.954 92.9359 162.041 93.0057 162.145L93.9006 163.464L95.2666 163.215L94.2614 157.695C93.3017 157.87 92.3429 158.045 91.3825 158.219C91.1356 158.265 90.8875 158.308 90.6409 158.355C90.4261 158.395 90.3541 158.421 90.3205 158.532" fill="#20E7B5"/>
<path fill-rule="evenodd" clip-rule="evenodd" d="M86.2707 161.066C87.0727 160.887 87.8029 160.371 88.1871 159.508C89.1984 157.24 86.8565 154.841 84.5713 155.775C83.1388 156.361 82.4509 158.001 83.0362 159.433C83.5921 160.793 85.0182 161.343 86.2706 161.066" fill="#20E7B5"/>
<path fill-rule="evenodd" clip-rule="evenodd" d="M88.629 166.244L88.6272 166.245L85.7912 168.169L88.9409 172.812L95.1322 168.612L91.9818 163.968L88.629 166.244Z" fill="#20E7B5"/>
<path fill-rule="evenodd" clip-rule="evenodd" d="M112.82 148.268L121.475 144.73L119.352 139.536L110.697 143.075L112.82 148.268Z" fill="#20E7B5"/>
<path fill-rule="evenodd" clip-rule="evenodd" d="M152.805 98.7242C152.942 99.0595 152.782 99.4412 152.446 99.5782L145.173 102.552C144.838 102.689 144.456 102.529 144.319 102.193L142.337 97.3445C142.2 97.0092 142.36 96.6275 142.695 96.4905L149.969 93.5171C150.304 93.38 150.685 93.5402 150.823 93.8754L152.805 98.7242ZM155.915 108.064L152.885 109.303C152.55 109.44 152.168 109.279 152.031 108.944C151.894 108.609 152.054 108.227 152.389 108.09L155.42 106.852C155.755 106.714 156.137 106.875 156.274 107.21C156.411 107.545 156.251 107.927 155.915 108.064ZM156.907 110.488L150.845 112.966C150.51 113.103 150.129 112.943 149.991 112.608C149.854 112.273 150.015 111.891 150.35 111.754L156.411 109.276C156.746 109.139 157.128 109.299 157.265 109.634C157.402 109.969 157.242 110.351 156.907 110.488ZM157.898 112.913L154.867 114.152C154.532 114.289 154.15 114.128 154.013 113.793C153.876 113.458 154.036 113.076 154.372 112.939L157.402 111.7C157.737 111.563 158.119 111.723 158.256 112.059C158.393 112.394 158.233 112.776 157.898 112.913ZM152.443 115.143L146.988 117.373C146.652 117.51 146.271 117.35 146.134 117.014C145.997 116.679 146.157 116.297 146.492 116.16L151.947 113.93C152.282 113.793 152.664 113.953 152.801 114.289C152.938 114.624 152.778 115.006 152.443 115.143ZM143.71 118.005C143.847 118.341 143.686 118.722 143.351 118.859C143.016 118.997 142.634 118.836 142.497 118.501L135.064 100.318C134.927 99.9826 135.087 99.6009 135.422 99.4638C135.757 99.3268 136.139 99.4869 136.276 99.8222L143.71 118.005ZM133.46 106.814L134.398 111.968C134.454 112.278 134.283 112.576 134.002 112.691C133.96 112.708 133.917 112.72 133.871 112.728L132.839 112.917L134.349 115.143C134.447 115.287 134.483 115.463 134.451 115.634C134.418 115.804 134.319 115.955 134.175 116.052L128.757 119.729C128.719 119.755 128.678 119.776 128.636 119.793C128.356 119.907 128.024 119.815 127.848 119.554L124.906 115.22C124.809 115.076 124.773 114.899 124.805 114.728C124.838 114.559 124.937 114.407 125.081 114.31L126.644 113.249L126.314 111.431C125 111.457 123.742 110.692 123.216 109.405C122.533 107.734 123.337 105.819 125.008 105.136C126.673 104.455 128.579 105.252 129.268 106.911L132.699 106.287C133.055 106.222 133.396 106.458 133.461 106.814L133.46 106.814ZM145.501 113.736L147.926 112.745C148.261 112.608 148.642 112.768 148.779 113.103C148.916 113.439 148.756 113.82 148.421 113.957L145.997 114.948C145.661 115.085 145.28 114.925 145.143 114.59C145.006 114.255 145.166 113.873 145.501 113.736ZM144.51 111.312L149.965 109.082C150.3 108.945 150.682 109.105 150.819 109.44C150.956 109.775 150.796 110.157 150.461 110.294L145.006 112.524C144.67 112.661 144.289 112.501 144.152 112.166C144.015 111.83 144.175 111.449 144.51 111.312ZM149.942 89.9911L118.425 102.876C117.087 103.422 116.445 104.954 116.991 106.291L125.416 126.899C125.962 128.236 127.494 128.879 128.831 128.332L160.349 115.448C161.686 114.901 162.329 113.369 161.782 112.032L153.357 91.4245C152.811 90.0873 151.279 89.4445 149.942 89.9911V89.9911Z" fill="#EAB720"/>
<path fill-rule="evenodd" clip-rule="evenodd" d="M129.529 108.279C129.515 108.322 129.511 108.384 129.501 108.476C129.436 109.105 129.182 109.712 128.79 110.209C128.473 110.611 128.061 110.94 127.594 111.151L127.829 112.446C127.829 112.446 130.499 110.634 130.51 110.63C130.579 110.584 130.655 110.551 130.735 110.535C130.905 110.5 131.081 110.533 131.225 110.628C131.297 110.675 131.36 110.736 131.409 110.809L132.036 111.733L132.993 111.558L132.289 107.693C131.617 107.815 130.945 107.938 130.273 108.06C130.1 108.092 129.926 108.122 129.753 108.155C129.603 108.183 129.553 108.201 129.529 108.279" fill="#EAB720"/>
<path fill-rule="evenodd" clip-rule="evenodd" d="M126.693 110.053C127.255 109.928 127.766 109.566 128.035 108.963C128.743 107.374 127.103 105.694 125.503 106.348C124.5 106.758 124.018 107.907 124.428 108.91C124.817 109.862 125.816 110.248 126.693 110.053" fill="#EAB720"/>
<path fill-rule="evenodd" clip-rule="evenodd" d="M128.345 113.679L128.343 113.679L126.358 115.027L128.563 118.278L132.898 115.337L130.692 112.085L128.345 113.679Z" fill="#EAB720"/>
<path fill-rule="evenodd" clip-rule="evenodd" d="M145.284 101.092L151.345 98.614L149.858 94.9774L143.797 97.4551L145.284 101.092Z" fill="#EAB720"/>
<path d="M46.5001 16C46.0718 19.4953 45.9303 21.7145 45.0936 23.1473C43.7259 24.928 41.3554 25.0976 37 25.5C41.2845 26.0185 43.6011 26.1308 44.9728 27.7621C45.9977 29.2061 46.171 31.4403 46.5 35C47.0586 30.383 47.1463 28.0515 49.1706 26.7249C50.61 26.0297 52.7578 25.8779 56 25.5002C51.9798 25.0077 49.6472 24.8944 48.2586 23.6662C47.0845 22.2664 46.9593 19.9418 46.5001 16Z" fill="#E771BE"/>
<path d="M282 60C281.324 65.5189 281.1 69.0229 279.779 71.2852C277.62 74.0968 273.877 74.3647 267 75.0001C273.765 75.8187 277.423 75.9959 279.589 78.5717C281.207 80.8518 281.481 84.3793 282 90C282.882 82.7101 283.02 79.0287 286.217 76.9341C288.489 75.8363 291.881 75.5967 297 75.0003C290.652 74.2226 286.969 74.0438 284.777 72.1045C282.923 69.8943 282.725 66.2239 282 60Z" fill="#7660FF"/>
<path d="M119 19C118.234 25.4387 117.981 29.5268 116.483 32.1661C114.036 35.4463 109.794 35.7588 102 36.5001C109.667 37.4551 113.813 37.6619 116.267 40.667C118.101 43.3271 118.411 47.4426 119 54C120 45.4951 120.156 41.2001 123.779 38.7564C126.355 37.4757 130.198 37.1961 136 36.5003C128.806 35.5931 124.632 35.3844 122.147 33.1219C120.046 30.5433 119.822 26.2612 119 19Z" fill="#FFF05F"/>
<path d="M241.5 88C240.576 95.7264 240.271 100.632 238.465 103.799C235.514 107.736 230.398 108.111 221 109C230.245 110.146 235.244 110.394 238.205 114C240.416 117.193 240.79 122.131 241.5 130C242.706 119.794 242.895 114.64 247.263 111.708C250.369 110.171 255.004 109.835 262 109C253.325 107.912 248.291 107.661 245.295 104.946C242.761 101.852 242.491 96.7134 241.5 88Z" fill="#20E7B5"/>
<path d="M70.0001 50C69.2789 56.0708 69.0405 59.9252 67.6314 62.4138C65.3278 65.5065 61.3354 65.8012 54 66.5001C61.216 67.4005 65.1177 67.5955 67.4279 70.4289C69.154 72.937 69.446 76.8173 70 83C70.9409 74.9811 71.0884 70.9316 74.4978 68.6275C76.9221 67.4199 80.5395 67.1563 86 66.5003C79.2292 65.6449 75.3006 65.4481 72.9618 63.3149C70.9844 60.8837 70.7735 56.8462 70.0001 50Z" fill="#EAB720"/>
<path fill-rule="evenodd" clip-rule="evenodd" d="M204.5 127.022C204.669 127.436 204.471 127.908 204.057 128.077L195.065 131.753C194.651 131.923 194.179 131.725 194.009 131.31L191.559 125.316C191.389 124.901 191.587 124.43 192.002 124.26L200.993 120.584C201.408 120.415 201.88 120.613 202.049 121.027L204.5 127.022ZM208.345 138.567L204.599 140.099C204.184 140.268 203.712 140.07 203.543 139.656C203.374 139.242 203.572 138.77 203.986 138.601L207.733 137.069C208.147 136.9 208.619 137.098 208.788 137.512C208.958 137.926 208.76 138.398 208.345 138.567ZM209.571 141.565L202.077 144.628C201.663 144.797 201.191 144.599 201.022 144.185C200.852 143.771 201.05 143.299 201.465 143.13L208.958 140.066C209.372 139.897 209.844 140.095 210.014 140.509C210.183 140.923 209.985 141.395 209.571 141.565ZM210.796 144.562L207.049 146.094C206.635 146.263 206.163 146.065 205.994 145.651C205.824 145.236 206.022 144.764 206.437 144.595L210.183 143.063C210.598 142.894 211.069 143.092 211.239 143.506C211.408 143.921 211.21 144.393 210.796 144.562ZM204.052 147.319L197.308 150.076C196.894 150.245 196.422 150.047 196.253 149.633C196.083 149.218 196.281 148.746 196.696 148.577L203.439 145.82C203.854 145.651 204.326 145.849 204.495 146.263C204.665 146.678 204.467 147.149 204.052 147.319ZM193.256 150.858C193.425 151.272 193.227 151.744 192.813 151.914C192.398 152.083 191.926 151.885 191.757 151.471L182.567 128.992C182.398 128.577 182.596 128.105 183.01 127.936C183.425 127.767 183.897 127.965 184.066 128.379L193.256 150.858ZM180.585 137.023L181.744 143.394C181.814 143.777 181.602 144.146 181.255 144.287C181.203 144.309 181.15 144.324 181.093 144.334L179.817 144.567L181.684 147.319C181.805 147.497 181.85 147.715 181.81 147.926C181.77 148.137 181.647 148.323 181.469 148.443L174.771 152.988C174.723 153.021 174.673 153.046 174.622 153.067C174.275 153.209 173.865 153.095 173.647 152.773L170.011 147.414C169.891 147.237 169.845 147.018 169.885 146.807C169.926 146.597 170.048 146.41 170.226 146.29L172.159 144.977L171.751 142.731C170.126 142.762 168.572 141.817 167.921 140.226C167.077 138.16 168.07 135.793 170.136 134.948C172.194 134.107 174.551 135.092 175.403 137.142L179.644 136.371C180.084 136.291 180.505 136.582 180.586 137.023L180.585 137.023ZM195.471 145.58L198.468 144.355C198.882 144.185 199.354 144.383 199.523 144.798C199.693 145.212 199.495 145.684 199.081 145.853L196.083 147.079C195.669 147.248 195.197 147.05 195.028 146.636C194.858 146.221 195.056 145.75 195.471 145.58ZM194.245 142.583L200.989 139.826C201.404 139.656 201.875 139.854 202.045 140.269C202.214 140.683 202.016 141.155 201.602 141.324L194.858 144.081C194.444 144.251 193.972 144.053 193.802 143.639C193.633 143.224 193.831 142.752 194.245 142.583ZM200.96 116.225L161.997 132.154C160.344 132.83 159.55 134.724 160.225 136.377L170.64 161.852C171.316 163.505 173.21 164.3 174.863 163.624L213.826 147.696C215.479 147.02 216.274 145.126 215.598 143.473L205.183 117.997C204.507 116.344 202.614 115.55 200.96 116.225V116.225Z" fill="#FFF05F"/>
<path fill-rule="evenodd" clip-rule="evenodd" d="M175.725 138.834C175.708 138.887 175.703 138.963 175.691 139.077C175.61 139.855 175.296 140.606 174.812 141.219C174.42 141.716 173.911 142.124 173.333 142.384L173.624 143.985C173.624 143.985 176.924 141.745 176.938 141.74C177.023 141.684 177.117 141.643 177.216 141.623C177.427 141.579 177.644 141.621 177.822 141.738C177.911 141.796 177.989 141.871 178.05 141.961L178.824 143.103L180.007 142.887L179.137 138.109C178.306 138.26 177.476 138.412 176.645 138.563C176.431 138.602 176.216 138.64 176.003 138.68C175.817 138.715 175.754 138.738 175.725 138.834" fill="#FFF05F"/>
<path fill-rule="evenodd" clip-rule="evenodd" d="M172.219 141.027C172.914 140.873 173.546 140.425 173.878 139.679C174.754 137.715 172.726 135.638 170.748 136.447C169.508 136.954 168.913 138.374 169.419 139.614C169.9 140.791 171.135 141.267 172.219 141.027" fill="#FFF05F"/>
<path fill-rule="evenodd" clip-rule="evenodd" d="M174.261 145.509L174.259 145.51L171.804 147.176L174.531 151.195L179.89 147.559L177.163 143.539L174.261 145.509Z" fill="#FFF05F"/>
<path fill-rule="evenodd" clip-rule="evenodd" d="M195.202 129.949L202.695 126.886L200.857 122.39L193.364 125.453L195.202 129.949Z" fill="#FFF05F"/>
</svg>
