<svg width="342" height="208" viewBox="0 0 342 208" fill="none" xmlns="http://www.w3.org/2000/svg">
<rect width="342" height="208" fill="#0A0A0A"/>
<path d="M48.5001 16C47.9817 20.2311 47.8104 22.9176 46.7975 24.652C45.1419 26.8076 42.2723 27.0129 37 27.5C42.1865 28.1276 44.9908 28.2636 46.6513 30.2383C47.892 31.9864 48.1018 34.6908 48.5 39C49.1763 33.4111 49.2823 30.5887 51.7328 28.9828C53.4753 28.1412 56.0752 27.9574 60 27.5002C55.1335 26.904 52.3098 26.7669 50.6288 25.2801C49.2075 23.5856 49.056 20.7716 48.5001 16Z" fill="#E771BE"/>
<path d="M277.5 60C277.027 63.8632 276.87 66.3161 275.946 67.8997C274.434 69.8678 271.814 70.0553 267 70.5C271.735 71.0731 274.296 71.1972 275.812 73.0002C276.945 74.5963 277.136 77.0655 277.5 81C278.117 75.8971 278.214 73.3201 280.452 71.8538C282.043 71.0854 284.417 70.9177 288 70.5002C283.557 69.9558 280.979 69.8306 279.444 68.4731C278.146 66.926 278.008 64.3567 277.5 60Z" fill="#7660FF"/>
<path d="M117 19C116.324 24.7028 116.1 28.3237 114.779 30.6614C112.62 33.5667 108.877 33.8435 102 34.5001C108.765 35.346 112.423 35.5291 114.589 38.1908C116.207 40.5469 116.481 44.192 117 50C117.882 42.4671 118.02 38.663 121.217 36.4985C123.489 35.3642 126.881 35.1166 132 34.5003C125.652 33.6967 121.969 33.5119 119.777 31.508C117.923 29.2241 117.725 25.4313 117 19Z" fill="#FFF05F"/>
<path d="M255.5 97C254.892 102.151 254.69 105.421 253.501 107.533C251.558 110.157 248.189 110.407 242 111C248.088 111.764 251.381 111.93 253.33 114.334C254.786 116.462 255.033 119.754 255.5 125C256.294 118.196 256.418 114.76 259.295 112.805C261.341 111.781 264.393 111.557 269 111C263.287 110.274 259.972 110.108 257.999 108.298C256.331 106.235 256.153 102.809 255.5 97Z" fill="#20E7B5"/>
<path d="M69.0001 50C68.324 55.7028 68.1005 59.3237 66.7794 61.6614C64.6198 64.5667 60.8769 64.8435 54 65.5001C60.765 66.346 64.4228 66.5291 66.5887 69.1908C68.2069 71.5469 68.4806 75.192 69 81C69.8821 73.4671 70.0204 69.663 73.2167 67.4985C75.4895 66.3642 78.8807 66.1166 84 65.5003C77.6524 64.6967 73.9693 64.5119 71.7767 62.508C69.9228 60.2241 69.7252 56.4313 69.0001 50Z" fill="#EAB720"/>
<path fill-rule="evenodd" clip-rule="evenodd" d="M182 71.9999H223.399V67.6422H182V71.9999Z" fill="#E771BE"/>
<path fill-rule="evenodd" clip-rule="evenodd" d="M218.497 58.382C216.182 60.4248 213.867 60.4248 211.688 58.382C209.782 56.7478 208.011 56.7478 206.104 58.382C203.925 60.4248 201.61 60.4248 199.295 58.382C197.389 56.7478 195.754 56.7478 193.848 58.382C191.533 60.4248 189.217 60.4248 186.902 58.382C186.085 57.7012 185.677 57.4287 184.723 57.1564V66.5532H220.676V57.1564C219.723 57.4287 219.314 57.7012 218.497 58.382H218.497Z" fill="#E771BE"/>
<path fill-rule="evenodd" clip-rule="evenodd" d="M217.136 47.6235H188.4C186.358 47.6235 184.723 49.394 184.723 51.3005V56.0667C186.085 56.339 186.63 56.7476 187.583 57.5646C189.49 59.1989 191.26 59.1989 193.031 57.5646C195.346 55.5219 197.661 55.5219 199.976 57.5646C201.883 59.1989 203.517 59.1989 205.423 57.5646C207.738 55.5219 210.054 55.5219 212.369 57.5646C214.275 59.1989 215.909 59.1989 217.816 57.5646C218.77 56.7475 219.45 56.339 220.676 56.0667V51.3005C220.676 49.394 219.042 47.6235 217.135 47.6235H217.136Z" fill="#E771BE"/>
<path fill-rule="evenodd" clip-rule="evenodd" d="M205.56 36.7281H199.976V46.5338H205.56V36.7281Z" fill="#E771BE"/>
<path fill-rule="evenodd" clip-rule="evenodd" d="M202.291 29.1022C200.929 30.4642 199.159 32.2343 200.929 34.141C201.882 35.0944 203.517 35.2304 204.47 34.141C206.24 32.2346 204.47 30.4641 203.108 29.1022C202.835 28.9659 202.563 28.9659 202.291 29.1022H202.291Z" fill="#E771BE"/>
<path fill-rule="evenodd" clip-rule="evenodd" d="M145 96H170.032V93.3651H145V96Z" fill="#20E7B5"/>
<path fill-rule="evenodd" clip-rule="evenodd" d="M167.068 87.7659C165.668 89.001 164.268 89.001 162.951 87.7659C161.798 86.7777 160.728 86.7777 159.575 87.7659C158.257 89.001 156.857 89.001 155.457 87.7659C154.305 86.7777 153.317 86.7777 152.164 87.7659C150.764 89.001 149.364 89.001 147.964 87.7659C147.47 87.3542 147.223 87.1894 146.647 87.0248V92.7066H168.385V87.0248C167.809 87.1894 167.562 87.3542 167.068 87.7659H167.068Z" fill="#20E7B5"/>
<path fill-rule="evenodd" clip-rule="evenodd" d="M166.245 81.2607H148.87C147.635 81.2607 146.647 82.3313 146.647 83.484V86.3659C147.47 86.5306 147.799 86.7776 148.376 87.2716C149.529 88.2598 150.599 88.2598 151.67 87.2716C153.069 86.0365 154.469 86.0365 155.869 87.2716C157.022 88.2598 158.01 88.2598 159.163 87.2716C160.563 86.0365 161.963 86.0365 163.362 87.2716C164.515 88.2598 165.503 88.2598 166.656 87.2716C167.233 86.7776 167.644 86.5306 168.385 86.3659V83.484C168.385 82.3313 167.397 81.2607 166.245 81.2607H166.245Z" fill="#20E7B5"/>
<path fill-rule="evenodd" clip-rule="evenodd" d="M159.245 74.6729H155.869V80.6018H159.245V74.6729Z" fill="#20E7B5"/>
<path fill-rule="evenodd" clip-rule="evenodd" d="M157.269 70.0618C156.445 70.8853 155.375 71.9556 156.445 73.1085C157.022 73.685 158.01 73.7672 158.586 73.1085C159.657 71.9558 158.586 70.8853 157.763 70.0618C157.598 69.9794 157.433 69.9794 157.269 70.0618H157.269Z" fill="#20E7B5"/>
<path d="M108.057 110.346L106.896 110.667C106.874 110.661 106.852 110.657 106.83 110.654L92.8595 110.702L93.705 108.417C93.7151 108.417 93.7243 108.423 93.7352 108.423L106.25 108.38L108.057 110.346ZM103.121 104.977L105.207 107.246L94.1281 107.284L94.9735 105.006L103.121 104.977ZM95.3961 103.866L96.2416 101.588L99.9719 101.575C99.9782 101.575 99.9833 101.572 99.9894 101.572L102.078 103.843L95.3961 103.866ZM98.95 100.441L96.6643 100.449L97.3238 98.6717L98.95 100.441ZM92.4371 111.841L102.776 111.805L91.2711 114.986L92.4371 111.841ZM84.112 121.541C84.1112 121.311 84.2492 121.103 84.4614 121.015C84.6737 120.926 84.9184 120.973 85.0818 121.136C85.2452 121.298 85.2945 121.542 85.2071 121.755C85.12 121.968 84.913 122.107 84.6829 122.108C84.532 122.109 84.387 122.049 84.28 121.943C84.173 121.837 84.1125 121.692 84.112 121.541V121.541Z" fill="#189475"/>
<path d="M112.452 91.2914C112.453 91.5931 112.335 91.883 112.122 92.0971C111.909 92.3111 111.62 92.432 111.319 92.4331C111.017 92.4341 110.727 92.3152 110.513 92.1026C110.299 91.8901 110.178 91.6009 110.177 91.2992C110.176 90.9975 110.295 90.7076 110.507 90.4935C110.72 90.2794 111.009 90.1585 111.311 90.1575C111.612 90.1565 111.902 90.2753 112.116 90.4879C112.33 90.7005 112.451 90.9896 112.452 91.2914Z" fill="#189475"/>
<path d="M111.364 105.518C111.062 105.519 110.772 105.4 110.558 105.187C110.344 104.975 110.223 104.685 110.222 104.384C110.221 104.082 110.34 103.792 110.553 103.578C110.765 103.364 111.054 103.243 111.356 103.242C111.658 103.241 111.948 103.36 112.162 103.572C112.376 103.785 112.497 104.074 112.498 104.376C112.499 104.678 112.38 104.967 112.167 105.182C111.955 105.396 111.666 105.517 111.364 105.518Z" fill="#189475"/>
<path d="M110.811 110.071C110.811 110.112 110.816 110.154 110.825 110.194C110.858 110.342 110.948 110.47 111.076 110.55C111.203 110.631 111.358 110.658 111.505 110.625L116.621 109.469C116.928 109.4 117.12 109.095 117.051 108.788C116.982 108.481 116.677 108.289 116.37 108.358L111.254 109.514C110.994 109.573 110.81 109.804 110.811 110.071L110.811 110.071Z" fill="#189475"/>
<path d="M100.661 89.0803C100.516 89.0377 100.361 89.0539 100.228 89.126C100.095 89.1981 99.9971 89.3198 99.9541 89.4645L98.2671 95.1593C98.2513 95.2125 98.2436 95.2674 98.2438 95.3227C98.2448 95.6051 98.4526 95.8442 98.7321 95.8841C99.0116 95.924 99.2782 95.7529 99.3583 95.4822L101.045 89.7873C101.088 89.6427 101.072 89.4868 101 89.3542C100.928 89.2216 100.806 89.1233 100.661 89.0803L100.661 89.0803Z" fill="#189475"/>
<path d="M116.908 94.3589C116.82 94.2356 116.686 94.1527 116.537 94.1284C116.387 94.104 116.234 94.1406 116.111 94.2296L108.167 99.9461C108.038 100.032 107.949 100.166 107.921 100.318C107.894 100.47 107.929 100.627 108.019 100.752C108.11 100.878 108.247 100.961 108.4 100.983C108.553 101.005 108.709 100.964 108.831 100.869L116.776 95.1523C117.032 94.9698 117.091 94.6146 116.908 94.359L116.908 94.3589Z" fill="#189475"/>
<path d="M105.181 94.3885L101.784 98.9514C101.596 99.2035 101.648 99.5599 101.9 99.7475C102.152 99.9351 102.509 99.883 102.696 99.6309L106.094 95.068C106.282 94.8159 106.229 94.4595 105.977 94.2719C105.725 94.0844 105.369 94.1364 105.181 94.3885Z" fill="#189475"/>
<path d="M96.0102 91.4301L97.3901 92.2581L96.8048 93.2336L95.4248 92.4056L96.0102 91.4301Z" fill="#189475"/>
<path d="M106.011 90.2051L106.374 91.2827L104.67 91.858L104.306 90.7804L106.011 90.2051Z" fill="#189475"/>
<path d="M110.356 94.8784L111.163 95.6802L110.03 96.8216L109.222 96.0199L110.356 94.8784Z" fill="#189475"/>
<path d="M107.312 103.001L107.885 104.137L106.869 104.649L106.297 103.514L107.312 103.001Z" fill="#189475"/>
<path d="M116.055 97.7038L116.862 98.5056L115.728 99.6471L114.921 98.8453L116.055 97.7038Z" fill="#189475"/>
<path d="M117.002 90.7067L117.008 92.4133L115.87 92.4173L115.864 90.7106L117.002 90.7067Z" fill="#189475"/>
<path d="M115.176 104.533L116.318 105.667L115.516 106.474L114.374 105.34L115.176 104.533Z" fill="#189475"/>
<path d="M113.509 115.918L114.65 117.051L113.848 117.858L112.707 116.725L113.509 115.918Z" fill="#189475"/>
<path d="M92.5334 89.0846L92.5374 90.2224L90.8307 90.2283L90.8268 89.0905L92.5334 89.0846Z" fill="#189475"/>
<path d="M116.102 111.357L116.909 112.159L115.776 113.3L114.968 112.498L116.102 111.357Z" fill="#189475"/>
<path d="M108.149 114.798L108.956 115.6L107.823 116.741L107.015 115.94L108.149 114.798Z" fill="#189475"/>
<path d="M90.6803 94.9464L91.8218 96.08L91.02 96.8874L89.8786 95.7538L90.6803 94.9464Z" fill="#189475"/>
<path d="M113.693 120.87L113.697 122.008L111.99 122.014L111.986 120.876L113.693 120.87Z" fill="#189475"/>
<path d="M101.935 93.6033C101.59 93.6045 101.28 93.8136 101.149 94.1328C101.018 94.4522 101.092 94.8189 101.337 95.0622C101.582 95.3054 101.949 95.377 102.268 95.2439C102.586 95.1107 102.793 94.7989 102.792 94.4537C102.79 93.9823 102.407 93.6017 101.935 93.6033L101.935 93.6033ZM102.223 94.4556C102.223 94.5707 102.154 94.6746 102.048 94.7191C101.942 94.7634 101.82 94.7395 101.738 94.6585C101.656 94.5775 101.632 94.4552 101.675 94.3486C101.719 94.2423 101.822 94.1726 101.937 94.1722C102.095 94.1716 102.222 94.2984 102.223 94.4557L102.223 94.4556Z" fill="#189475"/>
<path d="M110.824 113.768C110.825 114.113 111.034 114.424 111.353 114.555C111.673 114.686 112.039 114.612 112.282 114.367C112.526 114.122 112.597 113.754 112.464 113.436C112.331 113.118 112.019 112.911 111.674 112.912C111.203 112.914 110.822 113.297 110.824 113.768L110.824 113.768ZM111.961 113.764C111.962 113.879 111.893 113.983 111.787 114.028C111.681 114.072 111.558 114.048 111.477 113.967C111.395 113.886 111.37 113.764 111.414 113.657C111.458 113.551 111.561 113.481 111.676 113.481C111.833 113.48 111.961 113.607 111.961 113.764L111.961 113.764Z" fill="#189475"/>
<path d="M115.902 101.804C115.901 101.459 115.692 101.149 115.373 101.018C115.053 100.887 114.686 100.961 114.443 101.206C114.2 101.451 114.128 101.818 114.262 102.137C114.395 102.455 114.707 102.662 115.052 102.661C115.523 102.659 115.904 102.276 115.902 101.804L115.902 101.804ZM114.764 101.808C114.764 101.693 114.833 101.589 114.939 101.545C115.045 101.501 115.168 101.524 115.249 101.605C115.331 101.686 115.356 101.809 115.312 101.915C115.268 102.022 115.165 102.091 115.05 102.092C114.974 102.092 114.902 102.062 114.848 102.009C114.795 101.956 114.765 101.884 114.764 101.808L114.764 101.808Z" fill="#189475"/>
<path d="M93.9748 94.7687C93.6296 94.7699 93.3192 94.979 93.1883 95.2982C93.0573 95.6176 93.1315 95.9844 93.3764 96.2276C93.6213 96.4708 93.9885 96.5424 94.3071 96.4093C94.6253 96.2761 94.8323 95.9643 94.8311 95.6191C94.8294 95.1477 94.4462 94.7671 93.9748 94.7687L93.9748 94.7687ZM93.9787 95.9065C93.8636 95.9069 93.7598 95.8379 93.7152 95.7319C93.6709 95.6256 93.6949 95.5031 93.7759 95.4216C93.8569 95.34 93.9792 95.3152 94.0858 95.3588C94.1921 95.4026 94.2618 95.506 94.2622 95.6211C94.2624 95.6965 94.2327 95.769 94.1795 95.8225C94.1264 95.876 94.0541 95.9062 93.9787 95.9065L93.9787 95.9065Z" fill="#189475"/>
<path d="M104.804 100.42C104.459 100.421 104.149 100.63 104.018 100.95C103.887 101.269 103.961 101.636 104.206 101.879C104.451 102.122 104.818 102.194 105.136 102.061C105.455 101.928 105.662 101.616 105.66 101.271C105.659 100.799 105.275 100.419 104.804 100.42L104.804 100.42ZM105.092 101.273C105.092 101.388 105.023 101.491 104.917 101.536C104.811 101.58 104.688 101.556 104.607 101.475C104.525 101.394 104.5 101.272 104.544 101.165C104.588 101.059 104.691 100.989 104.806 100.989C104.963 100.989 105.091 101.115 105.092 101.273L105.092 101.273Z" fill="#189475"/>
<path d="M85.2459 120.399C85.2453 120.248 85.3048 120.103 85.4111 119.996L89.9465 115.43C90.169 115.213 90.5238 115.215 90.744 115.434C90.9642 115.653 90.9687 116.007 90.7539 116.231L86.2185 120.798C86.0562 120.961 85.8118 121.011 85.5989 120.924C85.3861 120.836 85.2467 120.629 85.2459 120.399L85.2459 120.399Z" fill="#189475"/>
<path d="M142.675 150.949L141.808 151.489C141.789 151.49 141.77 151.491 141.751 151.494L130.395 154.89L130.534 152.828C130.543 152.826 130.552 152.829 130.56 152.826L140.732 149.784L142.675 150.949ZM137.37 147.767L139.612 149.111L130.606 151.805L130.747 149.748L137.37 147.767ZM130.817 148.719L130.958 146.662L133.99 145.755C133.995 145.754 133.998 145.75 134.003 145.748L136.249 147.095L130.817 148.719ZM132.886 145.078L131.028 145.633L131.137 144.029L132.886 145.078ZM130.325 155.919L138.729 153.406L130.132 158.758L130.325 155.919ZM125.882 165.811C125.826 165.624 125.889 165.422 126.04 165.299C126.191 165.176 126.402 165.156 126.574 165.248C126.746 165.341 126.845 165.528 126.825 165.722C126.805 165.917 126.67 166.08 126.483 166.136C126.36 166.172 126.228 166.159 126.116 166.098C126.003 166.037 125.919 165.934 125.882 165.811V165.811Z" fill="#7660FF"/>
<path d="M141.674 134.389C141.747 134.635 141.72 134.899 141.599 135.124C141.477 135.35 141.271 135.517 141.026 135.591C140.78 135.664 140.516 135.637 140.291 135.516C140.065 135.394 139.897 135.188 139.824 134.943C139.751 134.697 139.778 134.433 139.899 134.208C140.021 133.982 140.227 133.815 140.472 133.741C140.718 133.668 140.982 133.695 141.207 133.816C141.433 133.938 141.6 134.144 141.674 134.389Z" fill="#7660FF"/>
<path d="M144.206 146.226C143.961 146.3 143.696 146.273 143.471 146.151C143.246 146.029 143.078 145.823 143.005 145.578C142.931 145.333 142.958 145.068 143.08 144.843C143.201 144.618 143.408 144.45 143.653 144.377C143.898 144.303 144.163 144.33 144.388 144.452C144.613 144.573 144.781 144.78 144.854 145.025C144.928 145.27 144.9 145.535 144.779 145.76C144.657 145.985 144.451 146.153 144.206 146.226Z" fill="#7660FF"/>
<path d="M144.85 150.064C144.86 150.098 144.874 150.13 144.891 150.161C144.953 150.273 145.057 150.356 145.181 150.391C145.304 150.425 145.436 150.41 145.548 150.348L149.433 148.178C149.666 148.048 149.749 147.754 149.619 147.521C149.489 147.288 149.195 147.205 148.962 147.335L145.077 149.504C144.879 149.615 144.785 149.847 144.85 150.064L144.85 150.064Z" fill="#7660FF"/>
<path d="M131.548 135.424C131.42 135.424 131.298 135.474 131.207 135.565C131.116 135.655 131.066 135.778 131.065 135.906L131.061 140.945C131.061 140.992 131.068 141.039 131.081 141.084C131.15 141.313 131.377 141.458 131.614 141.423C131.851 141.388 132.026 141.185 132.027 140.946L132.031 135.907C132.031 135.779 131.98 135.656 131.89 135.565C131.799 135.475 131.676 135.424 131.548 135.424L131.548 135.424Z" fill="#7660FF"/>
<path d="M146.036 135.815C145.935 135.736 145.806 135.7 145.679 135.717C145.551 135.733 145.435 135.799 145.357 135.901L140.266 142.461C140.182 142.562 140.142 142.692 140.156 142.823C140.17 142.953 140.236 143.072 140.34 143.153C140.444 143.233 140.575 143.268 140.705 143.249C140.835 143.23 140.952 143.159 141.028 143.052L146.119 136.492C146.283 136.282 146.246 135.979 146.036 135.815L146.036 135.815Z" fill="#7660FF"/>
<path d="M136.502 138.656L134.833 143.185C134.741 143.435 134.869 143.713 135.119 143.805C135.37 143.897 135.647 143.769 135.739 143.519L137.407 138.99C137.499 138.74 137.371 138.462 137.121 138.37C136.871 138.278 136.594 138.406 136.502 138.656Z" fill="#7660FF"/>
<path d="M128.328 138.453L129.65 138.795L129.408 139.729L128.087 139.387L128.328 138.453Z" fill="#7660FF"/>
<path d="M136.171 135.053L136.726 135.843L135.478 136.72L134.923 135.931L136.171 135.053Z" fill="#7660FF"/>
<path d="M140.829 137.812L141.679 138.27L141.031 139.471L140.181 139.013L140.829 137.812Z" fill="#7660FF"/>
<path d="M140.305 145.152L141.044 145.938L140.34 146.6L139.601 145.813L140.305 145.152Z" fill="#7660FF"/>
<path d="M146.145 138.742L146.995 139.2L146.347 140.401L145.497 139.943L146.145 138.742Z" fill="#7660FF"/>
<path d="M145.235 132.821L145.65 134.208L144.725 134.485L144.31 133.097L145.235 132.821Z" fill="#7660FF"/>
<path d="M147.071 144.509L148.272 145.157L147.814 146.007L146.613 145.359L147.071 144.509Z" fill="#7660FF"/>
<path d="M148.45 154.173L149.651 154.821L149.192 155.67L147.991 155.022L148.45 154.173Z" fill="#7660FF"/>
<path d="M124.936 137.38L125.213 138.304L123.826 138.719L123.549 137.794L124.936 137.38Z" fill="#7660FF"/>
<path d="M149.464 149.839L150.313 150.297L149.665 151.498L148.816 151.04L149.464 149.839Z" fill="#7660FF"/>
<path d="M143.82 154.55L144.669 155.008L144.021 156.209L143.172 155.751L143.82 154.55Z" fill="#7660FF"/>
<path d="M124.837 142.595L126.038 143.243L125.58 144.092L124.379 143.444L124.837 142.595Z" fill="#7660FF"/>
<path d="M149.789 158.158L150.066 159.083L148.679 159.498L148.402 158.573L149.789 158.158Z" fill="#7660FF"/>
<path d="M133.672 138.797C133.392 138.881 133.189 139.126 133.159 139.417C133.13 139.708 133.278 139.989 133.536 140.128C133.793 140.267 134.109 140.237 134.337 140.052C134.564 139.867 134.657 139.564 134.573 139.283C134.459 138.9 134.055 138.683 133.672 138.797L133.672 138.797ZM134.111 139.422C134.139 139.515 134.108 139.616 134.032 139.678C133.956 139.74 133.851 139.75 133.765 139.703C133.679 139.657 133.63 139.563 133.639 139.466C133.649 139.369 133.717 139.288 133.81 139.26C133.938 139.221 134.073 139.294 134.111 139.422L134.111 139.422Z" fill="#7660FF"/>
<path d="M145.749 153.069C145.833 153.35 146.077 153.552 146.368 153.582C146.66 153.612 146.94 153.463 147.079 153.206C147.219 152.948 147.189 152.632 147.004 152.405C146.819 152.178 146.515 152.084 146.235 152.168C145.852 152.283 145.634 152.686 145.749 153.069L145.749 153.069ZM146.673 152.793C146.701 152.886 146.67 152.987 146.595 153.049C146.519 153.111 146.413 153.12 146.328 153.074C146.242 153.028 146.192 152.934 146.202 152.837C146.212 152.74 146.28 152.659 146.373 152.631C146.501 152.592 146.635 152.665 146.673 152.793L146.673 152.793Z" fill="#7660FF"/>
<path d="M147.006 142.114C146.923 141.834 146.678 141.632 146.387 141.602C146.095 141.572 145.815 141.72 145.676 141.978C145.537 142.236 145.567 142.552 145.751 142.779C145.936 143.006 146.24 143.099 146.52 143.016C146.903 142.901 147.121 142.498 147.006 142.115L147.006 142.114ZM146.082 142.391C146.054 142.298 146.085 142.196 146.16 142.135C146.236 142.073 146.342 142.063 146.427 142.11C146.513 142.156 146.563 142.249 146.553 142.347C146.543 142.444 146.476 142.525 146.382 142.553C146.321 142.571 146.255 142.565 146.198 142.534C146.142 142.504 146.1 142.452 146.082 142.391L146.082 142.391Z" fill="#7660FF"/>
<path d="M127.475 141.658C127.194 141.742 126.992 141.987 126.962 142.278C126.932 142.569 127.081 142.85 127.338 142.989C127.596 143.128 127.912 143.098 128.139 142.913C128.366 142.728 128.46 142.425 128.376 142.144C128.261 141.761 127.858 141.544 127.475 141.658L127.475 141.658ZM127.751 142.583C127.658 142.611 127.557 142.58 127.495 142.504C127.433 142.428 127.424 142.323 127.47 142.237C127.516 142.151 127.61 142.102 127.707 142.112C127.804 142.122 127.885 142.189 127.913 142.283C127.932 142.344 127.925 142.41 127.895 142.466C127.864 142.523 127.813 142.565 127.751 142.583L127.751 142.583Z" fill="#7660FF"/>
<path d="M137.644 143.655C137.363 143.739 137.161 143.983 137.131 144.274C137.101 144.566 137.25 144.846 137.508 144.985C137.765 145.125 138.081 145.095 138.309 144.91C138.536 144.725 138.629 144.421 138.545 144.141C138.431 143.758 138.027 143.54 137.644 143.655L137.644 143.655ZM138.083 144.279C138.111 144.373 138.079 144.474 138.004 144.535C137.928 144.597 137.823 144.607 137.737 144.561C137.651 144.514 137.601 144.421 137.611 144.324C137.621 144.227 137.689 144.145 137.782 144.117C137.91 144.079 138.044 144.151 138.083 144.279L138.083 144.279Z" fill="#7660FF"/>
<path d="M126.531 164.61C126.494 164.487 126.508 164.355 126.568 164.242L129.161 159.437C129.29 159.207 129.58 159.124 129.811 159.249C130.043 159.374 130.132 159.661 130.011 159.895L127.418 164.701C127.325 164.873 127.138 164.972 126.944 164.952C126.75 164.932 126.587 164.797 126.531 164.61L126.531 164.61Z" fill="#7660FF"/>
<path d="M196.143 129.79L195.419 130.344C195.402 130.346 195.386 130.349 195.369 130.353L185.581 134.341L185.528 132.498C185.535 132.495 185.543 132.497 185.551 132.494L194.319 128.923L196.143 129.79ZM191.161 127.421L193.267 128.422L185.504 131.584L185.453 129.746L191.161 127.421ZM185.427 128.827L185.375 126.989L187.989 125.925C187.993 125.923 187.996 125.919 188 125.917L190.108 126.92L185.427 128.827ZM186.951 125.418L185.349 126.07L185.309 124.637L186.951 125.418ZM185.607 135.259L192.851 132.309L185.679 137.796L185.607 135.259ZM182.511 144.421C182.446 144.259 182.484 144.075 182.607 143.952C182.731 143.83 182.916 143.794 183.077 143.862C183.237 143.929 183.341 144.087 183.34 144.261C183.339 144.435 183.234 144.591 183.072 144.657C182.967 144.7 182.848 144.699 182.743 144.655C182.638 144.611 182.554 144.526 182.511 144.421V144.421Z" fill="#EAB720"/>
<path d="M193.835 115.178C193.921 115.389 193.92 115.626 193.831 115.837C193.743 116.047 193.574 116.214 193.363 116.3C193.151 116.386 192.914 116.385 192.704 116.296C192.493 116.207 192.327 116.039 192.241 115.827C192.155 115.616 192.156 115.379 192.245 115.169C192.333 114.958 192.502 114.792 192.713 114.706C192.924 114.619 193.162 114.621 193.372 114.709C193.582 114.798 193.749 114.967 193.835 115.178Z" fill="#EAB720"/>
<path d="M197.097 125.467C196.886 125.553 196.648 125.552 196.438 125.463C196.228 125.374 196.061 125.206 195.975 124.994C195.889 124.783 195.89 124.546 195.979 124.336C196.067 124.125 196.236 123.959 196.447 123.873C196.659 123.786 196.896 123.788 197.106 123.876C197.317 123.965 197.483 124.134 197.569 124.345C197.655 124.556 197.654 124.793 197.566 125.004C197.477 125.214 197.308 125.381 197.097 125.467Z" fill="#EAB720"/>
<path d="M197.997 128.818C198.009 128.847 198.024 128.875 198.042 128.901C198.107 128.995 198.207 129.059 198.319 129.079C198.431 129.1 198.547 129.075 198.641 129.01L201.903 126.752C202.099 126.616 202.148 126.348 202.012 126.152C201.877 125.957 201.609 125.908 201.413 126.043L198.151 128.302C197.985 128.417 197.921 128.631 197.997 128.818L197.997 128.818Z" fill="#EAB720"/>
<path d="M184.937 116.964C184.823 116.975 184.718 117.03 184.646 117.118C184.573 117.206 184.539 117.319 184.549 117.433L184.977 121.906C184.981 121.948 184.991 121.988 185.007 122.027C185.088 122.225 185.301 122.334 185.509 122.283C185.716 122.232 185.855 122.036 185.834 121.824L185.406 117.351C185.395 117.237 185.34 117.133 185.252 117.06C185.164 116.987 185.05 116.953 184.937 116.964L184.937 116.964Z" fill="#EAB720"/>
<path d="M197.829 116.069C197.733 116.008 197.615 115.987 197.503 116.013C197.392 116.038 197.294 116.107 197.234 116.204L193.277 122.463C193.211 122.559 193.187 122.679 193.21 122.793C193.234 122.908 193.303 123.008 193.402 123.07C193.501 123.133 193.621 123.152 193.735 123.124C193.848 123.097 193.946 123.023 194.004 122.922L197.961 116.663C198.089 116.463 198.03 116.197 197.829 116.069L197.829 116.069Z" fill="#EAB720"/>
<path d="M189.61 119.408L188.517 123.571C188.457 123.801 188.594 124.037 188.824 124.097C189.054 124.157 189.29 124.02 189.35 123.79L190.443 119.627C190.503 119.397 190.365 119.162 190.135 119.101C189.906 119.041 189.67 119.179 189.61 119.408Z" fill="#EAB720"/>
<path d="M182.338 119.928L183.541 120.118L183.406 120.968L182.204 120.778L182.338 119.928Z" fill="#EAB720"/>
<path d="M189.008 116.239L189.568 116.892L188.535 117.778L187.975 117.125L189.008 116.239Z" fill="#EAB720"/>
<path d="M193.379 118.288L194.172 118.622L193.7 119.744L192.907 119.41L193.379 118.288Z" fill="#EAB720"/>
<path d="M193.542 124.848L194.266 125.483L193.698 126.13L192.975 125.495L193.542 124.848Z" fill="#EAB720"/>
<path d="M198.177 118.658L198.97 118.992L198.498 120.113L197.704 119.779L198.177 118.658Z" fill="#EAB720"/>
<path d="M196.861 113.48L197.348 114.676L196.551 115.001L196.064 113.805L196.861 113.48Z" fill="#EAB720"/>
<path d="M199.493 123.697L200.614 124.17L200.28 124.963L199.159 124.491L199.493 123.697Z" fill="#EAB720"/>
<path d="M201.545 132.157L202.666 132.629L202.332 133.422L201.211 132.95L201.545 132.157Z" fill="#EAB720"/>
<path d="M179.236 119.266L179.56 120.063L178.365 120.55L178.04 119.753L179.236 119.266Z" fill="#EAB720"/>
<path d="M202.073 128.223L202.867 128.557L202.394 129.679L201.601 129.345L202.073 128.223Z" fill="#EAB720"/>
<path d="M197.468 132.888L198.261 133.222L197.789 134.344L196.995 134.009L197.468 132.888Z" fill="#EAB720"/>
<path d="M179.594 123.903L180.716 124.376L180.382 125.169L179.26 124.697L179.594 123.903Z" fill="#EAB720"/>
<path d="M203.075 135.579L203.4 136.376L202.204 136.863L201.879 136.066L203.075 135.579Z" fill="#EAB720"/>
<path d="M187.111 119.776C186.869 119.875 186.71 120.109 186.709 120.37C186.707 120.631 186.863 120.868 187.104 120.969C187.344 121.07 187.622 121.017 187.808 120.833C187.994 120.649 188.051 120.372 187.952 120.13C187.818 119.8 187.441 119.642 187.111 119.776L187.111 119.776ZM187.553 120.293C187.586 120.373 187.567 120.466 187.506 120.527C187.444 120.588 187.351 120.606 187.271 120.572C187.191 120.538 187.138 120.46 187.139 120.373C187.14 120.286 187.192 120.207 187.273 120.175C187.383 120.13 187.509 120.183 187.553 120.293L187.553 120.293Z" fill="#EAB720"/>
<path d="M199.052 131.408C199.151 131.65 199.385 131.809 199.646 131.81C199.908 131.812 200.144 131.656 200.245 131.415C200.347 131.175 200.293 130.897 200.109 130.711C199.926 130.525 199.649 130.469 199.407 130.567C199.077 130.702 198.918 131.078 199.052 131.408L199.052 131.408ZM199.85 131.084C199.882 131.164 199.863 131.257 199.802 131.318C199.74 131.379 199.647 131.397 199.567 131.363C199.487 131.329 199.435 131.251 199.435 131.164C199.436 131.077 199.489 130.998 199.569 130.966C199.679 130.921 199.805 130.974 199.85 131.084L199.85 131.084Z" fill="#EAB720"/>
<path d="M199.23 121.578C199.132 121.336 198.897 121.177 198.636 121.176C198.375 121.174 198.139 121.33 198.037 121.571C197.936 121.811 197.99 122.089 198.173 122.275C198.357 122.461 198.634 122.518 198.876 122.419C199.206 122.284 199.365 121.908 199.23 121.578L199.23 121.578ZM198.433 121.902C198.4 121.822 198.419 121.729 198.481 121.668C198.543 121.607 198.636 121.589 198.716 121.623C198.796 121.657 198.848 121.735 198.848 121.822C198.847 121.909 198.794 121.988 198.713 122.02C198.661 122.042 198.601 122.042 198.549 122.019C198.496 121.997 198.454 121.955 198.433 121.902L198.433 121.902Z" fill="#EAB720"/>
<path d="M181.855 122.846C181.613 122.945 181.455 123.179 181.453 123.44C181.452 123.702 181.608 123.938 181.848 124.039C182.089 124.141 182.367 124.087 182.553 123.903C182.738 123.72 182.795 123.442 182.697 123.201C182.562 122.87 182.186 122.712 181.855 122.846L181.855 122.846ZM182.18 123.643C182.099 123.676 182.007 123.657 181.946 123.596C181.885 123.534 181.867 123.441 181.9 123.361C181.934 123.281 182.013 123.229 182.1 123.229C182.187 123.23 182.265 123.282 182.298 123.363C182.32 123.416 182.319 123.475 182.297 123.528C182.275 123.58 182.233 123.622 182.18 123.643L182.18 123.643Z" fill="#EAB720"/>
<path d="M191.052 123.747C190.81 123.845 190.652 124.08 190.65 124.341C190.649 124.602 190.804 124.838 191.045 124.94C191.286 125.041 191.564 124.988 191.749 124.804C191.935 124.62 191.992 124.343 191.893 124.101C191.759 123.771 191.382 123.612 191.052 123.747L191.052 123.747ZM191.495 124.264C191.528 124.344 191.509 124.437 191.447 124.498C191.385 124.559 191.292 124.577 191.212 124.543C191.132 124.509 191.08 124.431 191.08 124.344C191.081 124.257 191.134 124.178 191.214 124.146C191.325 124.101 191.45 124.154 191.495 124.264L191.495 124.264Z" fill="#EAB720"/>
<path d="M182.984 143.299C182.941 143.193 182.941 143.074 182.986 142.969L184.875 138.482C184.97 138.267 185.22 138.168 185.436 138.259C185.653 138.35 185.756 138.598 185.669 138.816L183.779 143.303C183.711 143.464 183.554 143.568 183.38 143.567C183.206 143.565 183.049 143.46 182.984 143.299L182.984 143.299Z" fill="#EAB720"/>
</svg>
